<?xml version="1.0" encoding="UTF-8"?>
<svg id="Layer_1" xmlns="http://www.w3.org/2000/svg" width="761.62" height="180.75" viewBox="0 0 761.62 180.75"><g id="Layer_2"><g id="Layer_1-2"><path d="M310,35.59c.07,3.33-.52,6.65-1.74,9.75-1.07,2.66-2.76,5.02-4.93,6.89-2.28,1.9-4.94,3.3-7.8,4.1-3.35.95-6.83,1.41-10.31,1.36-1.74,0-3.77-.07-6.08-.21-2.29-.15-4.58-.45-6.83-.9V14.66c2.31-.43,4.65-.71,7-.84,2.42-.15,4.5-.23,6.24-.22,3.37-.04,6.74.38,10,1.24,2.82.74,5.46,2.08,7.73,3.91,2.21,1.83,3.93,4.18,5,6.84,1.23,3.19,1.81,6.59,1.72,10h0ZM282,49.25c.46.04.99.07,1.59.09h2.14c4.84,0,8.43-1.22,10.78-3.66s3.51-5.8,3.49-10.09c0-4.52-1.12-7.94-3.35-10.25s-5.77-3.47-10.62-3.48h-2.05c-.67.01-1.34.07-2,.16l.02,27.23Z" style="fill:#32322f;"/><path d="M325.9,15c.08,1.51-.52,2.98-1.64,4-2.22,1.96-5.55,1.96-7.77,0-1.12-1.02-1.72-2.49-1.64-4-.07-1.51.53-2.97,1.64-4,2.23-1.93,5.54-1.93,7.77,0,1.11,1.03,1.71,2.49,1.64,4ZM325,57.14h-9.25V24.47h9.25v32.67Z" style="fill:#32322f;"/><path d="M359.81,53c0,5.33-1.35,9.3-4.06,11.89-2.71,2.59-6.9,3.89-12.58,3.88-2.01,0-4.02-.18-6-.53-1.88-.32-3.72-.79-5.53-1.39l1.62-7.77c3.17,1.29,6.58,1.92,10,1.87,2.64,0,4.52-.58,5.62-1.74,1.11-1.22,1.7-2.83,1.64-4.48v-1.14c-.98.44-2.01.78-3.07,1-1.13.26-2.29.4-3.45.41-4.51,0-7.97-1.33-10.37-4s-3.6-6.4-3.6-11.21c-.03-2.24.35-4.46,1.12-6.56.7-1.9,1.82-3.63,3.26-5.06,1.49-1.45,3.28-2.56,5.24-3.26,2.25-.79,4.62-1.18,7-1.15,1.12,0,2.27.06,3.45.16s2.35.24,3.51.4,2.26.37,3.32.59,2,.47,2.82.72l.06,27.37h0ZM339.51,39.71c0,5.17,2.09,7.76,6.27,7.76.9,0,1.8-.12,2.67-.37.73-.21,1.44-.5,2.11-.87v-14.74c-.46-.09-1-.16-1.61-.22s-1.35-.09-2.18-.09c-2.11-.15-4.16.75-5.46,2.42-1.26,1.8-1.89,3.96-1.8,6.15v-.04h0Z" style="fill:#32322f;"/><path d="M376.84,15c.08,1.51-.52,2.98-1.64,4-2.22,1.96-5.54,1.96-7.76,0-1.12-1.02-1.73-2.49-1.65-4-.07-1.51.53-2.98,1.65-4,2.23-1.93,5.53-1.93,7.76,0,1.11,1.03,1.71,2.49,1.64,4ZM376,57.14h-9.25V24.47h9.25v32.67Z" style="fill:#32322f;"/><path d="M382.53,16.33l9.25-1.49v9.63h11.12v7.7h-11.12v11.49c-.09,1.61.26,3.22,1,4.66.68,1.16,2.06,1.74,4.13,1.74,1.03,0,2.06-.1,3.07-.28,1-.17,1.97-.43,2.92-.78l1.3,7.2c-1.21.49-2.45.88-3.72,1.18-1.64.36-3.32.53-5,.5-2.14.08-4.27-.26-6.27-1-1.55-.6-2.93-1.58-4-2.85-1.03-1.3-1.74-2.82-2.08-4.44-.41-1.9-.61-3.84-.59-5.78v-27.48h-.01Z" style="fill:#32322f;"/><path d="M420.44,23.6c2.31-.06,4.62.25,6.83.93,1.66.51,3.16,1.43,4.38,2.67,1.12,1.19,1.93,2.64,2.35,4.22.48,1.8.7,3.66.68,5.53v19.25c-1.32.29-3.16.64-5.52,1-2.84.43-5.7.62-8.57.59-1.93.02-3.86-.17-5.75-.56-1.59-.31-3.09-.94-4.44-1.83-1.23-.84-2.21-1.99-2.85-3.33-.71-1.57-1.05-3.28-1-5-.05-1.69.34-3.36,1.15-4.85.74-1.3,1.8-2.38,3.07-3.17,1.37-.81,2.86-1.39,4.41-1.71,1.7-.35,3.43-.53,5.16-.52,1.07,0,2.14.04,3.2.15.76.08,1.52.21,2.26.41v-.87c.07-1.4-.45-2.78-1.42-3.79-1-.95-2.61-1.43-5-1.43-1.56,0-3.12.12-4.66.34-1.36.2-2.7.53-4,1l-1.18-7.45c.54-.16,1.22-.34,2-.53s1.69-.35,2.64-.49,2-.27,3-.38,2.19-.18,3.26-.18h0ZM421.19,50.68c.91,0,1.78,0,2.61-.07.67-.02,1.34-.08,2-.18v-7c-.37-.08-.93-.16-1.67-.25-.68-.08-1.37-.12-2.05-.12-.82,0-1.64.05-2.46.15-.69.09-1.37.29-2,.59-.57.27-1.05.68-1.4,1.2-.35.56-.52,1.21-.5,1.87-.12,1.2.45,2.36,1.46,3,1.25.61,2.63.89,4.01.81Z" style="fill:#32322f;"/><path d="M454.18,57.76c-2.21.02-4.42-.28-6.55-.87-1.5-.43-2.87-1.2-4-2.27-.98-.97-1.68-2.2-2-3.54-.37-1.54-.55-3.11-.53-4.69V10.39l9.26-1.49v35.63c0,.75.05,1.49.18,2.23.1.61.35,1.19.72,1.68.4.5.92.89,1.52,1.12.85.33,1.76.52,2.67.56l-1.27,7.64h0Z" style="fill:#32322f;"/><path d="M485.79,13.6c6.46,0,11.41,1.15,14.84,3.45,3.44,2.29,5.16,5.87,5.16,10.71.12,2.61-.61,5.2-2.08,7.36-1.55,2-3.63,3.54-6,4.44.86,1.08,1.78,2.31,2.73,3.7s1.89,2.83,2.82,4.34,1.84,3.09,2.7,4.72,1.68,3.24,2.43,4.82h-10.82l-2.4-4.29c-.81-1.45-1.64-2.86-2.5-4.22s-1.7-2.65-2.52-3.88c-.83-1.22-1.67-2.33-2.5-3.33h-4.78v15.72h-9.68V14.72c2.16-.42,4.35-.71,6.55-.87,2.25-.17,4.27-.25,6.05-.25h0ZM486.35,21.86c-.7,0-1.33.02-1.89.06l-1.59.13v11.67h2.74c3.64,0,6.25-.45,7.82-1.36,1.6-.99,2.51-2.79,2.36-4.66.15-1.84-.79-3.59-2.39-4.5-2.2-1.02-4.63-1.48-7.05-1.34h0Z" style="fill:#32322f;"/><path d="M510.12,41.05c-.05-2.6.4-5.18,1.34-7.61.8-2.03,2.01-3.88,3.54-5.44,1.42-1.43,3.12-2.55,5-3.29,1.84-.74,3.81-1.12,5.8-1.12,4.67,0,8.33,1.42,11,4.25s4,7.01,4,12.52c0,.54-.02,1.13-.06,1.77,0,.64-.08,1.21-.12,1.7h-21c.17,1.84,1.15,3.5,2.68,4.54,1.88,1.21,4.1,1.8,6.33,1.68,1.68,0,3.35-.16,5-.47,1.37-.23,2.71-.62,4-1.15l1.25,7.57c-.64.31-1.31.56-2,.75-.91.27-1.83.49-2.76.65-1,.19-2.11.34-3.26.47-1.16.12-2.32.19-3.48.19-2.62.06-5.22-.39-7.67-1.31-2.04-.78-3.89-2-5.41-3.57-1.44-1.53-2.52-3.37-3.16-5.37-.71-2.18-1.05-4.47-1.02-6.76h0ZM531.86,37.51c-.04-.78-.18-1.55-.4-2.3-.22-.73-.58-1.41-1.06-2-.5-.59-1.11-1.08-1.8-1.43-.84-.4-1.77-.59-2.7-.56-.92-.02-1.83.16-2.67.53-.71.33-1.35.8-1.87,1.39-.5.59-.89,1.27-1.15,2-.26.76-.46,1.54-.59,2.33l12.24.04h0Z" style="fill:#32322f;"/><path d="M555.46,50.49c1.22.08,2.45-.09,3.6-.5.72-.36,1.14-1.12,1.06-1.92-.06-.87-.58-1.64-1.37-2-1.33-.75-2.72-1.38-4.16-1.89-1.34-.49-2.66-1.05-3.94-1.68-1.1-.53-2.12-1.23-3-2.08-.84-.82-1.49-1.8-1.92-2.89-.49-1.28-.72-2.63-.69-4-.11-2.84,1.17-5.55,3.42-7.27,2.28-1.78,5.41-2.67,9.38-2.67,1.92,0,3.83.17,5.71.53,1.48.26,2.94.64,4.35,1.15l-1.62,7.2c-1.15-.4-2.32-.73-3.51-1-1.4-.31-2.82-.45-4.25-.44-2.9,0-4.34.81-4.34,2.42,0,.34.05.68.18,1,.17.34.43.63.75.84.48.33.99.62,1.52.87.64.31,1.46.66,2.45,1,1.72.62,3.39,1.36,5,2.23,1.17.61,2.23,1.41,3.14,2.36.74.81,1.29,1.77,1.61,2.82.33,1.17.49,2.38.47,3.59.16,2.91-1.22,5.69-3.64,7.32-2.44,1.68-5.86,2.52-10.26,2.52-2.44.05-4.87-.2-7.24-.75-1.36-.32-2.7-.73-4-1.24l1.55-7.52c1.57.64,3.19,1.14,4.84,1.51,1.62.33,3.26.5,4.91.49h0Z" style="fill:#32322f;"/><path d="M572.65,41.05c-.05-2.6.41-5.19,1.35-7.61.79-2.03,1.98-3.88,3.5-5.44,1.42-1.43,3.12-2.55,5-3.29,1.84-.74,3.81-1.12,5.8-1.12,4.67,0,8.33,1.42,11,4.25s4,7.01,4,12.52c0,.54-.02,1.13-.06,1.77,0,.64-.08,1.21-.12,1.7h-21c.16,1.84,1.14,3.51,2.67,4.54,1.88,1.21,4.1,1.8,6.33,1.68,1.68,0,3.35-.16,5-.47,1.37-.23,2.71-.62,4-1.15l1.29,7.57c-.64.31-1.31.56-2,.75-.91.27-1.83.49-2.76.65-1,.19-2.11.34-3.26.47-1.16.12-2.32.19-3.48.19-2.62.06-5.22-.39-7.67-1.31-2.04-.78-3.88-2-5.4-3.57-1.44-1.53-2.53-3.37-3.17-5.37-.7-2.18-1.04-4.47-1.02-6.76h0ZM594.39,37.51c-.04-.78-.18-1.55-.4-2.3-.22-.73-.58-1.41-1.06-2-.5-.59-1.11-1.08-1.8-1.43-.84-.4-1.77-.59-2.7-.56-.92-.02-1.83.16-2.67.53-.71.33-1.35.8-1.87,1.39-.5.59-.89,1.27-1.14,2-.27.76-.47,1.54-.59,2.33l12.23.04h0Z" style="fill:#32322f;"/><path d="M620.44,23.6c2.31-.06,4.62.25,6.83.93,1.66.52,3.16,1.43,4.38,2.67,1.12,1.19,1.93,2.64,2.35,4.22.48,1.8.7,3.66.68,5.53v19.25c-1.32.29-3.16.64-5.52,1-2.84.43-5.7.62-8.57.59-1.93.02-3.86-.17-5.75-.56-1.59-.31-3.09-.94-4.44-1.83-1.23-.84-2.21-1.99-2.85-3.33-.71-1.57-1.05-3.28-1-5-.05-1.69.34-3.36,1.15-4.85.74-1.3,1.8-2.39,3.07-3.17,1.37-.81,2.86-1.39,4.41-1.71,1.7-.35,3.43-.53,5.16-.52,1.07,0,2.14.04,3.2.15.76.08,1.52.21,2.26.41v-.87c.07-1.41-.45-2.78-1.43-3.79-.95-.95-2.62-1.42-5-1.43-1.56,0-3.12.12-4.66.34-1.36.2-2.7.53-4,1l-1.18-7.45c.54-.16,1.21-.34,2-.53s1.69-.35,2.64-.49,2-.27,3-.38,2.19-.18,3.27-.18h0ZM621.19,50.68c.91,0,1.78,0,2.6-.07.67-.02,1.34-.08,2-.18v-7c-.37-.08-.93-.16-1.67-.25-.68-.08-1.36-.12-2.05-.12-.82,0-1.64.05-2.46.15-.69.09-1.37.29-2,.59-.56.27-1.04.68-1.39,1.2-.35.56-.52,1.21-.5,1.87-.12,1.2.45,2.36,1.46,3,1.24.61,2.63.89,4.01.81Z" style="fill:#32322f;"/><path d="M661,32.67c-.83-.21-1.8-.43-2.92-.66-1.19-.23-2.39-.34-3.6-.34-.7.01-1.39.07-2.08.16-.62.07-1.24.18-1.84.34v25h-9.25v-30.96c1.93-.66,3.88-1.21,5.87-1.65,2.48-.54,5.01-.8,7.54-.77.5,0,1.1.03,1.8.09.71.06,1.41.14,2.12.25s1.4.22,2.11.37c.61.12,1.22.3,1.8.53l-1.55,7.64h0Z" style="fill:#32322f;"/><path d="M663.73,40.8c-.01-2.27.37-4.53,1.14-6.67,1.47-4.11,4.59-7.42,8.61-9.13,2.24-.95,4.65-1.41,7.08-1.37,1.61-.02,3.21.14,4.78.47,1.45.31,2.86.75,4.22,1.33l-1.92,7.39c-.93-.35-1.89-.64-2.86-.87-1.14-.26-2.31-.38-3.48-.37-2.73,0-4.76.85-6.11,2.54-1.42,1.94-2.12,4.31-2,6.71-.15,2.42.51,4.83,1.89,6.83,1.26,1.62,3.47,2.43,6.61,2.43,1.21,0,2.42-.11,3.61-.31,1.22-.19,2.4-.53,3.54-1l1.3,7.58c-1.29.52-2.63.91-4,1.18-1.76.35-3.55.51-5.34.5-2.63.06-5.25-.39-7.7-1.34-2.05-.81-3.88-2.08-5.37-3.7-1.39-1.57-2.42-3.43-3-5.44-.67-2.19-1-4.47-1-6.76Z" style="fill:#32322f;"/><path d="M694.52,57.14V10.43l9.25-1.49v15.65c.78-.24,1.58-.44,2.39-.59.93-.18,1.88-.27,2.83-.28,2.25-.06,4.5.31,6.61,1.09,1.65.64,3.11,1.7,4.22,3.08,1.09,1.38,1.86,2.99,2.24,4.71.45,2,.67,4.04.65,6.09v18.45h-9.25v-17.33c0-3-.39-5.09-1.15-6.34s-2.18-1.86-4.25-1.86c-.78,0-1.56.07-2.33.22-.73.14-1.38.3-2,.46v24.85h-9.21,0Z" style="fill:#32322f;"/><path d="M300.79,122.16c-.48-1.49-1-3-1.54-4.6s-1.1-3.15-1.65-4.71h-16.81c-.54,1.57-1.09,3.14-1.63,4.72s-1.06,3.11-1.53,4.59h-10.06c1.62-4.63,3.16-8.91,4.61-12.85,1.45-3.94,2.88-7.65,4.27-11.12,1.39-3.48,2.76-6.78,4.11-9.9,1.35-3.12,2.75-6.17,4.2-9.16h9.24c1.41,2.98,2.81,6.03,4.18,9.16s2.76,6.43,4.15,9.9c1.39,3.48,2.82,7.19,4.27,11.12,1.46,3.93,3,8.22,4.62,12.85h-10.43,0ZM289.15,88.88c-.21.62-.53,1.47-.95,2.55s-.89,2.32-1.42,3.73-1.13,3-1.78,4.65-1.33,3.48-2,5.34h12.3c-.67-1.87-1.3-3.66-1.91-5.35-.61-1.69-1.19-3.25-1.76-4.67-.56-1.41-1.05-2.65-1.46-3.73s-.76-1.91-1.02-2.52h0Z" style="fill:#32322f;"/><path d="M326.75,122.78c-2.21.03-4.42-.27-6.55-.87-1.5-.42-2.87-1.19-4-2.26-.97-.98-1.67-2.2-2-3.54-.37-1.54-.54-3.11-.52-4.69v-36l9.32-1.42v35.59c0,.75.05,1.49.19,2.23.17,1.27,1.03,2.35,2.23,2.8.85.33,1.76.52,2.67.55l-1.34,7.61h0Z" style="fill:#32322f;"/><path d="M344.57,122.78c-2.21.03-4.42-.27-6.55-.87-1.5-.42-2.87-1.2-4-2.26-.98-.97-1.67-2.2-2-3.54-.37-1.53-.55-3.11-.53-4.69v-36l9.29-1.42v35.59c0,.75.05,1.49.19,2.23.17,1.27,1.03,2.35,2.23,2.8.85.33,1.76.51,2.67.55l-1.3,7.61h0Z" style="fill:#32322f;"/><path d="M359.54,80.06c.07,1.51-.53,2.98-1.64,4-2.22,1.95-5.55,1.95-7.77,0-2.18-2.22-2.18-5.78,0-8,2.22-1.95,5.55-1.95,7.77,0,1.11,1.03,1.71,2.49,1.64,4ZM358.67,122.16h-9.25v-32.66h9.25v32.66Z" style="fill:#32322f;"/><path d="M377.32,88.63c2.31-.06,4.62.25,6.83.93,1.65.52,3.16,1.43,4.37,2.67,1.12,1.19,1.92,2.64,2.33,4.22.48,1.8.71,3.66.69,5.53v19.25c-1.33.29-3.18.62-5.53,1-2.84.43-5.7.62-8.57.59-1.93.02-3.85-.17-5.74-.56-1.58-.32-3.09-.94-4.44-1.83-1.23-.83-2.22-1.98-2.86-3.33-.7-1.57-1.05-3.28-1-5-.05-1.69.35-3.36,1.15-4.84.74-1.3,1.8-2.39,3.08-3.17,1.36-.82,2.85-1.4,4.41-1.71,1.69-.35,3.42-.53,5.15-.52,1.07,0,2.14.04,3.2.15.77.07,1.53.21,2.27.4v-.86c.06-1.41-.45-2.78-1.43-3.79-.95-.95-2.62-1.42-5-1.43-1.56,0-3.12.11-4.66.34-1.36.2-2.7.53-4,1l-1.18-7.45c.54-.17,1.21-.34,2-.53s1.68-.35,2.64-.5,1.95-.26,3-.37,2.21-.19,3.29-.19ZM378.06,115.7c.91,0,1.78-.02,2.61-.06.67-.02,1.34-.08,2-.18v-7c-.38-.08-.93-.17-1.68-.25-.68-.08-1.36-.12-2.05-.13-.82,0-1.64.05-2.45.16-.69.08-1.37.28-2,.59-.55.26-1.03.67-1.37,1.18-.34.56-.51,1.21-.49,1.86-.12,1.2.44,2.36,1.46,3,1.23.61,2.6.89,3.97.83Z" style="fill:#32322f;"/><path d="M398.19,90.62c2-.55,4.04-.97,6.09-1.28,2.59-.4,5.21-.6,7.83-.59,2.34-.07,4.68.3,6.89,1.09,1.7.63,3.21,1.68,4.38,3.07,1.1,1.39,1.89,3,2.3,4.72.47,2,.7,4.04.68,6.09v18.44h-9.25v-17.32c0-3-.4-5.1-1.18-6.34s-2.26-1.86-4.41-1.86c-.67,0-1.37,0-2.11.09s-1.41.14-2,.22v25.21h-9.26s.04-31.54.04-31.54Z" style="fill:#32322f;"/><path d="M431.33,105.83c-.02-2.28.37-4.54,1.15-6.68,1.46-4.12,4.58-7.44,8.6-9.16,2.24-.94,4.65-1.41,7.08-1.36,1.61-.01,3.21.14,4.78.46,1.45.31,2.87.76,4.23,1.34l-1.93,7.39c-.93-.35-1.89-.64-2.86-.87-1.14-.26-2.3-.38-3.47-.37-2.74,0-4.78.85-6.12,2.54-1.42,1.94-2.12,4.31-2,6.71-.15,2.42.51,4.83,1.89,6.83,1.27,1.62,3.47,2.42,6.62,2.42,1.21,0,2.41-.11,3.6-.31,1.22-.19,2.41-.52,3.54-1l1.31,7.58c-1.3.51-2.63.91-4,1.18-1.76.34-3.55.51-5.34.49-2.63.06-5.25-.39-7.7-1.33-4.04-1.56-7.13-4.91-8.36-9.07-.68-2.2-1.02-4.49-1.02-6.79h0Z" style="fill:#32322f;"/><path d="M460,106.08c-.06-2.6.4-5.19,1.34-7.61.78-2.04,1.96-3.9,3.47-5.47,1.42-1.43,3.12-2.56,5-3.3,1.85-.73,3.82-1.11,5.81-1.11,4.67,0,8.33,1.42,11,4.25s4,7,4,12.51c0,.54-.02,1.13-.06,1.77,0,.65-.09,1.22-.13,1.71h-21c.17,1.84,1.15,3.5,2.67,4.54,1.89,1.2,4.1,1.78,6.34,1.67,1.68,0,3.35-.15,5-.46,1.37-.24,2.71-.62,4-1.15l1.24,7.51c-.64.31-1.31.56-2,.75-.91.27-1.84.48-2.77.65-1,.19-2.1.34-3.26.47-1.15.12-2.31.18-3.47.18-2.62.06-5.22-.38-7.67-1.3-2.04-.78-3.89-2-5.41-3.57-1.44-1.54-2.52-3.37-3.17-5.37-.66-2.16-.97-4.41-.93-6.67h0ZM481.74,102.54c-.04-.78-.18-1.55-.41-2.3-.21-.73-.57-1.41-1.05-2-.5-.59-1.11-1.08-1.8-1.43-.85-.39-1.78-.58-2.71-.55-.91-.03-1.82.15-2.66.52-.71.33-1.35.81-1.87,1.4-.51.59-.9,1.27-1.15,2-.26.76-.46,1.54-.59,2.33l12.24.03h0Z" style="fill:#32322f;"/><path d="M537.22,106.14c.03,2.34-.34,4.67-1.09,6.89-.64,1.94-1.66,3.73-3,5.28-1.29,1.44-2.87,2.59-4.63,3.39-3.77,1.61-8.03,1.61-11.8,0-1.76-.8-3.34-1.95-4.63-3.39-1.34-1.54-2.36-3.34-3-5.28-1.45-4.48-1.45-9.3,0-13.78.64-1.95,1.66-3.75,3-5.31,1.29-1.45,2.86-2.62,4.63-3.42,3.77-1.61,8.03-1.61,11.8,0,1.77.8,3.34,1.97,4.63,3.42,1.33,1.56,2.35,3.36,3,5.31.75,2.22,1.12,4.55,1.09,6.89ZM532.93,106.14c0-4-.93-7.2-2.79-9.59-3.44-4.19-9.62-4.79-13.81-1.35-.49.41-.95.86-1.35,1.35-1.86,2.38-2.79,5.58-2.79,9.59s.94,7.2,2.81,9.56c3.51,4.19,9.75,4.74,13.93,1.23.44-.37.85-.78,1.23-1.23,1.85-2.36,2.77-5.55,2.77-9.56h0Z" style="fill:#32322f;"/><path d="M555.67,74c1.43-.03,2.86.11,4.26.41.74.14,1.46.38,2.14.71l-.81,3.48c-.65-.27-1.32-.49-2-.66-1.11-.25-2.24-.36-3.38-.34-2.86,0-4.9.73-6.12,2.18s-1.83,3.76-1.83,7v3.35h12.92v3.42h-12.94v28.69h-4v-35.66c0-4.18.96-7.33,2.89-9.44s4.88-3.16,8.87-3.14Z" style="fill:#32322f;"/><path d="M596.41,123.09c-2.65.03-5.28-.48-7.73-1.49-2.36-.98-4.48-2.46-6.21-4.34-1.84-2.05-3.26-4.45-4.16-7.05-1.06-3.09-1.58-6.34-1.52-9.6-.06-3.28.5-6.54,1.64-9.61.99-2.6,2.48-4.97,4.38-7,1.78-1.87,3.94-3.35,6.33-4.32s4.94-1.46,7.52-1.46c1.48,0,2.95.1,4.41.31,1.18.18,2.34.44,3.48.78.86.26,1.71.57,2.54.93.56.23,1.1.52,1.62.84l-1.37,3.66c-1.26-.72-2.58-1.34-3.94-1.83-4.26-1.35-8.85-1.18-13,.47-1.96.87-3.7,2.19-5.06,3.85-1.41,1.74-2.46,3.75-3.08,5.9-.7,2.46-1.04,5.02-1,7.58-.04,2.61.3,5.21,1,7.73.6,2.14,1.62,4.13,3,5.87,1.32,1.6,2.99,2.88,4.88,3.72,2.08.9,4.34,1.35,6.61,1.31,2.31.05,4.63-.21,6.87-.78,1.45-.37,2.85-.9,4.19-1.58l1.18,3.6c-.47.29-.97.53-1.49.71-.71.27-1.6.55-2.67.84-1.23.32-2.47.56-3.73.71-1.56.19-3.12.27-4.69.25Z" style="fill:#32322f;"/><path d="M624.5,89.31c1.83-.05,3.66.26,5.38.9,1.37.53,2.6,1.39,3.57,2.49.93,1.09,1.62,2.37,2,3.75.42,1.54.63,3.13.62,4.72v20.25c-.42.12-1,.26-1.81.4s-1.69.3-2.73.47-2.18.3-3.44.4-2.56.16-3.89.16c-1.58.01-3.15-.18-4.68-.56-1.35-.34-2.62-.94-3.73-1.77-1.06-.82-1.92-1.89-2.48-3.11-.64-1.45-.95-3.03-.91-4.62-.04-1.55.3-3.09,1-4.48.66-1.24,1.62-2.29,2.79-3.07,1.31-.85,2.76-1.45,4.29-1.77,1.77-.38,3.58-.57,5.4-.56.58,0,1.19.03,1.83.09.64.07,1.27.15,1.87.25s1.11.21,1.55.31c.31.07.61.16.9.28v-2c0-1.09-.08-2.19-.25-3.27-.15-1.02-.52-1.99-1.09-2.85-.6-.86-1.41-1.55-2.36-2-1.25-.57-2.62-.84-4-.78-1.77-.06-3.55.11-5.28.5-1.16.33-2.01.6-2.55.81l-.56-3.54c1.05-.43,2.15-.75,3.27-.94,1.75-.32,3.52-.47,5.29-.46h0ZM624.88,119.24c1.57,0,3,0,4.13-.15,1.01-.08,2.01-.21,3-.4v-11.31c-.7-.28-1.43-.49-2.17-.65-1.35-.26-2.73-.37-4.1-.34-1.04,0-2.08.07-3.11.22-1.05.13-2.06.44-3,.93-.89.46-1.66,1.13-2.23,1.95-.62.98-.93,2.14-.87,3.3-.03,1.03.17,2.06.59,3,.36.81.94,1.5,1.67,2,.79.53,1.68.9,2.61,1.09,1.14.25,2.31.37,3.48.36h0Z" style="fill:#32322f;"/><path d="M644.17,91.17c1.2-.33,2.82-.7,4.85-1.12,2.46-.45,4.95-.66,7.45-.62,2.09-.06,4.17.3,6.12,1.06,1.55.64,2.89,1.67,3.91,3,1.01,1.4,1.72,3,2.08,4.69.43,1.97.63,3.98.62,6v17.94h-4v-16.6c.03-1.94-.12-3.87-.46-5.78-.23-1.38-.77-2.7-1.56-3.85-.71-.99-1.71-1.73-2.85-2.14-1.43-.47-2.93-.69-4.44-.65-1.65-.02-3.3.09-4.94.31-.92.1-1.82.29-2.7.56v28.19h-4l-.08-30.99h0Z" style="fill:#32322f;"/><path d="M686.78,89.31c1.83-.05,3.65.26,5.37.9,1.37.53,2.6,1.39,3.57,2.49.93,1.09,1.62,2.37,2,3.75.42,1.54.63,3.13.62,4.72v20.25c-.59.16-1.19.3-1.8.4-.79.15-1.7.3-2.73.47s-2.19.3-3.45.4-2.56.16-3.88.16c-1.58.01-3.16-.18-4.69-.56-1.34-.34-2.61-.94-3.72-1.77-1.07-.82-1.92-1.89-2.49-3.11-.64-1.45-.95-3.03-.9-4.62-.04-1.55.3-3.09,1-4.48.67-1.24,1.63-2.29,2.8-3.07,1.3-.85,2.76-1.45,4.28-1.77,1.78-.38,3.59-.57,5.41-.56.58,0,1.19.03,1.83.09.64.07,1.26.15,1.86.25s1.12.21,1.55.31c.31.07.61.16.9.28v-2c0-1.09-.08-2.19-.24-3.27-.15-1.01-.52-1.97-1.07-2.83-.6-.86-1.41-1.55-2.36-2-1.25-.57-2.62-.84-4-.78-1.77-.06-3.55.11-5.28.5-1.15.33-2,.6-2.54.81l-.56-3.54c1.05-.43,2.14-.75,3.26-.94,1.73-.32,3.5-.48,5.26-.48h0ZM687.15,119.24c1.58,0,3,0,4.13-.15,1.01-.08,2.01-.21,3-.4v-11.31c-.7-.28-1.43-.5-2.17-.65-1.35-.26-2.73-.37-4.1-.34-1.04,0-2.07.07-3.1.22-1.05.13-2.06.44-3,.93-.89.46-1.66,1.13-2.24,1.95-.62.98-.93,2.14-.87,3.3-.02,1.03.18,2.05.59,3,.36.81.95,1.5,1.68,2,.79.53,1.68.9,2.61,1.09,1.14.25,2.3.37,3.47.36h0Z" style="fill:#32322f;"/><path d="M732.08,121.17c-1.5.49-3.04.89-4.59,1.18-2.34.41-4.71.6-7.08.56-2.2.03-4.38-.36-6.43-1.15-1.89-.73-3.59-1.86-5-3.32-1.43-1.52-2.53-3.32-3.23-5.28-.79-2.25-1.18-4.62-1.15-7-.02-2.28.32-4.56,1-6.74.58-1.94,1.54-3.74,2.82-5.31,1.24-1.5,2.81-2.69,4.58-3.49,1.94-.86,4.05-1.29,6.18-1.25,1.87-.04,3.73.26,5.49.9,1.2.43,2.33,1.01,3.38,1.73v-17.28l4-.75.03,47.2h0ZM728.08,95.89c-.45-.34-.92-.65-1.4-.93-.64-.36-1.31-.68-2-.93-.79-.3-1.59-.54-2.42-.71-.9-.19-1.81-.29-2.73-.28-1.72-.07-3.44.27-5,1-1.3.67-2.42,1.64-3.26,2.83-.86,1.26-1.47,2.67-1.8,4.16-.38,1.66-.57,3.36-.56,5.06,0,4.22,1.06,7.46,3.17,9.72,2.17,2.28,5.23,3.52,8.38,3.38,1.61.02,3.21-.07,4.81-.27.94-.13,1.86-.33,2.77-.59l.04-22.44Z" style="fill:#32322f;"/><path d="M750.08,89.31c1.83-.05,3.65.26,5.37.9,1.37.53,2.58,1.39,3.55,2.49.94,1.09,1.62,2.37,2,3.75.42,1.54.63,3.13.62,4.72v20.25c-.59.16-1.19.3-1.8.4-.79.15-1.7.3-2.73.47s-2.19.3-3.45.4-2.56.16-3.88.16c-1.58.01-3.16-.18-4.69-.56-1.34-.34-2.61-.94-3.72-1.77-1.07-.82-1.92-1.89-2.49-3.11-.64-1.45-.95-3.03-.9-4.62-.04-1.55.3-3.09,1-4.48.66-1.24,1.63-2.29,2.8-3.07,1.3-.85,2.76-1.45,4.28-1.77,1.78-.38,3.59-.57,5.41-.56.58,0,1.19.03,1.83.09.64.07,1.26.15,1.86.25s1.12.21,1.55.31c.31.07.61.16.9.28v-2c0-1.09-.08-2.19-.24-3.27-.16-1.02-.53-1.99-1.09-2.85-.6-.86-1.41-1.55-2.36-2-1.25-.57-2.62-.84-4-.78-1.77-.06-3.54.11-5.27.5-1.16.33-2.01.6-2.55.81l-.56-3.54c1.05-.43,2.14-.75,3.26-.94,1.75-.32,3.52-.47,5.3-.46ZM750.45,119.24c1.58,0,2.95,0,4.13-.15,1.01-.08,2.01-.21,3-.4v-11.31c-.7-.28-1.43-.5-2.17-.65-1.35-.26-2.73-.37-4.1-.34-1.04,0-2.07.07-3.1.22-1.05.13-2.06.44-3,.93-.89.46-1.66,1.13-2.24,1.95-.62.98-.93,2.14-.87,3.3-.02,1.03.18,2.05.59,3,.37.81.95,1.5,1.68,2,.8.54,1.69.92,2.63,1.11,1.13.24,2.29.36,3.45.34h0Z" style="fill:#32322f;"/><path d="M165.47,0H0l26.47,15.38,88.17,50.84,50.78,88.05,15.38,26.48V0h-15.33ZM165.42,77.86l-39.58-22.86-22.84-39.62h62.46l-.04,62.48ZM57.19,15.38h28.13l14,24.35L57.19,15.38ZM141.13,81.5l24.29,14v28.06l-24.29-42.06Z" style="fill:#d6ab00;"/></g></g></svg>