<svg xmlns="http://www.w3.org/2000/svg" xmlns:xlink="http://www.w3.org/1999/xlink" width="300" zoomAndPan="magnify" viewBox="0 0 224.87999 225" height="300" preserveAspectRatio="xMidYMid meet" version="1.0"><defs><g/><clipPath id="bc0c4fd754"><path d="M 0 0.0585938 L 224.761719 0.0585938 L 224.761719 224.9375 L 0 224.9375 Z M 0 0.0585938 " clip-rule="nonzero"/></clipPath><clipPath id="203695ffaa"><path d="M 112.441406 0.0585938 C 50.339844 0.0585938 0 50.402344 0 112.5 C 0 174.597656 50.339844 224.941406 112.441406 224.941406 C 174.539062 224.941406 224.878906 174.597656 224.878906 112.5 C 224.878906 50.402344 174.539062 0.0585938 112.441406 0.0585938 Z M 112.441406 0.0585938 " clip-rule="nonzero"/></clipPath></defs><g clip-path="url(#bc0c4fd754)"><g clip-path="url(#203695ffaa)"><path fill="#196734" d="M 0 0.0585938 L 224.878906 0.0585938 L 224.878906 224.941406 L 0 224.941406 Z M 0 0.0585938 " fill-opacity="1" fill-rule="nonzero"/></g></g><g fill="#ffffff" fill-opacity="1"><g transform="translate(35.782599, 137.497841)"><g><path d="M 41.109375 -53.75 C 48.972656 -53.75 55.007812 -51.554688 59.21875 -47.171875 C 63.4375 -42.796875 65.546875 -36.507812 65.546875 -28.3125 C 65.546875 -18.757812 62.789062 -11.484375 57.28125 -6.484375 C 51.78125 -1.484375 43.921875 0.957031 33.703125 0.84375 C 24.148438 0.957031 16.789062 -2.71875 11.625 -10.1875 C 6.457031 -17.65625 3.875 -28.300781 3.875 -42.125 C 3.875 -55.9375 6.789062 -66.601562 12.625 -74.125 C 18.46875 -81.65625 26.785156 -85.421875 37.578125 -85.421875 C 43.410156 -85.421875 48.796875 -84.15625 53.734375 -81.625 C 58.679688 -79.101562 62.726562 -75.484375 65.875 -70.765625 L 49.03125 -58.96875 C 45.550781 -63.007812 41.734375 -65.03125 37.578125 -65.03125 C 33.078125 -65.03125 29.476562 -63.316406 26.78125 -59.890625 C 24.09375 -56.460938 22.46875 -51.609375 21.90625 -45.328125 C 27.1875 -50.941406 33.585938 -53.75 41.109375 -53.75 Z M 33.703125 -19.546875 C 40.773438 -19.546875 44.3125 -22.015625 44.3125 -26.953125 C 44.3125 -31.222656 41.785156 -33.472656 36.734375 -33.703125 C 34.253906 -33.703125 32.0625 -33.109375 30.15625 -31.921875 C 28.25 -30.742188 26.566406 -29.085938 25.109375 -26.953125 C 27.128906 -22.015625 29.992188 -19.546875 33.703125 -19.546875 Z M 33.703125 -19.546875 "/></g></g></g><g fill="#ffffff" fill-opacity="1"><g transform="translate(97.191437, 137.497841)"><g><path d="M 14.828125 1.171875 C 11.347656 1.171875 8.648438 0.21875 6.734375 -1.6875 C 4.828125 -3.59375 3.875 -6.285156 3.875 -9.765625 C 3.875 -16.960938 7.523438 -20.5625 14.828125 -20.5625 C 22.128906 -20.5625 25.78125 -16.960938 25.78125 -9.765625 C 25.78125 -6.285156 24.851562 -3.59375 23 -1.6875 C 21.144531 0.21875 18.421875 1.171875 14.828125 1.171875 Z M 14.828125 1.171875 "/></g></g></g><g fill="#ffffff" fill-opacity="1"><g transform="translate(116.986556, 137.497841)"><g><path d="M 43.96875 -57.28125 C 51.613281 -57.28125 57.507812 -54.921875 61.65625 -50.203125 C 65.8125 -45.484375 67.890625 -38.691406 67.890625 -29.828125 C 67.890625 -19.828125 65.191406 -12.1875 59.796875 -6.90625 C 54.410156 -1.625 46.722656 0.957031 36.734375 0.84375 C 29.085938 0.957031 22.625 -0.863281 17.34375 -4.625 C 12.070312 -8.394531 8.367188 -13.816406 6.234375 -20.890625 L 24.09375 -28.140625 C 26.113281 -22.410156 30.210938 -19.546875 36.390625 -19.546875 C 39.648438 -19.546875 42.207031 -20.472656 44.0625 -22.328125 C 45.914062 -24.179688 46.84375 -26.679688 46.84375 -29.828125 C 46.84375 -35.546875 42.738281 -38.40625 34.53125 -38.40625 C 31.726562 -38.40625 28.976562 -37.925781 26.28125 -36.96875 C 23.582031 -36.019531 21.28125 -34.757812 19.375 -33.1875 L 4.71875 -41.453125 L 4.71875 -84.234375 L 66.21875 -84.234375 L 66.21875 -64.53125 L 26.78125 -64.53125 L 26.78125 -52.734375 C 31.050781 -55.765625 36.78125 -57.28125 43.96875 -57.28125 Z M 43.96875 -57.28125 "/></g></g></g><g fill="#ffffff" fill-opacity="1"><g transform="translate(51.16111, 187.721037)"><g><path d="M 39.296875 -41.703125 L 39.296875 0 L 25.4375 0 L 25.4375 -6.25 C 23.414062 -1.59375 20.492188 0.734375 16.671875 0.734375 C 12.015625 0.734375 8.4375 -1.140625 5.9375 -4.890625 C 3.4375 -8.648438 2.1875 -13.96875 2.1875 -20.84375 C 2.1875 -27.726562 3.4375 -33.046875 5.9375 -36.796875 C 8.4375 -40.546875 12.015625 -42.421875 16.671875 -42.421875 C 20.492188 -42.421875 23.414062 -40.09375 25.4375 -35.4375 L 25.4375 -41.703125 Z M 20.75 -12.296875 C 22.269531 -12.296875 23.429688 -13.039062 24.234375 -14.53125 C 25.035156 -16.03125 25.4375 -18.132812 25.4375 -20.84375 C 25.4375 -23.550781 25.035156 -25.648438 24.234375 -27.140625 C 23.429688 -28.640625 22.269531 -29.390625 20.75 -29.390625 C 19.144531 -29.390625 17.90625 -28.640625 17.03125 -27.140625 C 16.164062 -25.648438 15.734375 -23.550781 15.734375 -20.84375 C 15.734375 -18.132812 16.164062 -16.03125 17.03125 -14.53125 C 17.90625 -13.039062 19.144531 -12.296875 20.75 -12.296875 Z M 20.75 -12.296875 "/></g></g></g><g fill="#ffffff" fill-opacity="1"><g transform="translate(89.364969, 187.721037)"><g><path d="M 15.015625 -41.703125 L 0.734375 -41.703125 L 16.265625 0 L 29.609375 0 L 45.234375 -41.703125 L 31.0625 -41.703125 L 22.9375 -20.21875 Z M 15.015625 -41.703125 "/></g></g></g><g fill="#ffffff" fill-opacity="1"><g transform="translate(129.028074, 187.721037)"><g><path d="M 39.296875 -41.703125 L 39.296875 -0.625 C 39.296875 4.863281 37.765625 9.117188 34.703125 12.140625 C 31.648438 15.160156 27.3125 16.671875 21.6875 16.671875 C 15.78125 16.671875 11.175781 15.398438 7.875 12.859375 C 4.570312 10.328125 2.78125 6.734375 2.5 2.078125 L 14.796875 1.140625 C 15.003906 3.785156 16.988281 5.109375 20.75 5.109375 C 23.875 5.109375 25.4375 3.195312 25.4375 -0.625 L 25.4375 -6.25 C 23.414062 -1.59375 20.492188 0.734375 16.671875 0.734375 C 12.015625 0.734375 8.4375 -1.140625 5.9375 -4.890625 C 3.4375 -8.648438 2.1875 -13.96875 2.1875 -20.84375 C 2.1875 -27.726562 3.4375 -33.046875 5.9375 -36.796875 C 8.4375 -40.546875 12.015625 -42.421875 16.671875 -42.421875 C 20.492188 -42.421875 23.414062 -40.09375 25.4375 -35.4375 L 25.4375 -41.703125 Z M 20.75 -12.296875 C 22.269531 -12.296875 23.429688 -13.039062 24.234375 -14.53125 C 25.035156 -16.03125 25.4375 -18.132812 25.4375 -20.84375 C 25.4375 -23.550781 25.035156 -25.648438 24.234375 -27.140625 C 23.429688 -28.640625 22.269531 -29.390625 20.75 -29.390625 C 19.144531 -29.390625 17.90625 -28.640625 17.03125 -27.140625 C 16.164062 -25.648438 15.734375 -23.550781 15.734375 -20.84375 C 15.734375 -18.132812 16.164062 -16.03125 17.03125 -14.53125 C 17.90625 -13.039062 19.144531 -12.296875 20.75 -12.296875 Z M 20.75 -12.296875 "/></g></g></g></svg>