<svg xmlns="http://www.w3.org/2000/svg" xmlns:xlink="http://www.w3.org/1999/xlink" width="488" zoomAndPan="magnify" viewBox="0 0 366 173.249993" height="231" preserveAspectRatio="xMidYMid meet" version="1.0"><defs><clipPath id="50331f6306"><path d="M 102 33.105469 L 131 33.105469 L 131 101 L 102 101 Z M 102 33.105469 " clip-rule="nonzero"/></clipPath><clipPath id="06d0a4eaff"><path d="M 187 33.105469 L 216 33.105469 L 216 102 L 187 102 Z M 187 33.105469 " clip-rule="nonzero"/></clipPath><clipPath id="cf48c60926"><path d="M 223 33.105469 L 256 33.105469 L 256 101 L 223 101 Z M 223 33.105469 " clip-rule="nonzero"/></clipPath><clipPath id="305d3eceee"><path d="M 151 114 L 171 114 L 171 139.148438 L 151 139.148438 Z M 151 114 " clip-rule="nonzero"/></clipPath></defs><path fill="#fdfdfd" d="M 52.714844 64.730469 L 93.246094 43.648438 L 93.246094 52.464844 L 62.1875 68.277344 L 93.246094 84.085938 L 93.246094 92.902344 L 52.714844 71.820312 Z M 52.714844 64.730469 " fill-opacity="1" fill-rule="nonzero"/><g clip-path="url(#50331f6306)"><path fill="#fdfdfd" d="M 120.328125 100.625 L 115.230469 72.457031 L 112.585938 72.457031 L 112.585938 100.625 L 102.75 100.625 L 102.75 33.835938 L 112.585938 33.835938 C 124.335938 33.835938 129.347656 40.46875 129.347656 53.101562 C 129.347656 59.734375 127.617188 65.730469 123.882812 68.277344 L 130.167969 100.625 Z M 112.585938 63.367188 C 113.953125 63.367188 115.777344 63.1875 117.234375 61.914062 C 118.691406 60.644531 119.875 58.1875 119.875 53.464844 C 119.875 48.738281 118.691406 46.195312 117.234375 44.921875 C 115.777344 43.648438 113.953125 43.558594 112.585938 43.558594 Z M 112.585938 63.367188 " fill-opacity="1" fill-rule="nonzero"/></g><path fill="#fdfdfd" d="M 174.289062 82.816406 L 174.289062 88.539062 C 174.015625 93.355469 172.558594 96.71875 169.277344 99.355469 C 167.640625 100.71875 165.363281 101.351562 162.355469 101.351562 C 156.4375 101.351562 153.429688 98.082031 151.972656 94.808594 C 151.152344 92.902344 150.605469 90.722656 150.515625 88.269531 L 150.515625 63.277344 C 150.789062 58.460938 152.335938 54.917969 155.617188 52.191406 C 157.164062 50.828125 159.441406 50.191406 162.445312 50.191406 C 168.367188 50.191406 171.375 53.464844 172.832031 56.644531 C 173.648438 58.554688 174.195312 60.644531 174.289062 63.003906 L 174.289062 77.453125 L 159.078125 77.453125 L 159.078125 88.269531 C 159.167969 90.175781 159.714844 91.539062 160.535156 92.539062 C 160.988281 92.992188 161.628906 93.265625 162.445312 93.265625 C 164.175781 93.265625 164.996094 92.175781 165.363281 90.8125 C 165.636719 90.085938 165.726562 89.265625 165.726562 88.269531 L 165.726562 82.816406 Z M 159.078125 70.273438 L 165.726562 70.273438 L 165.726562 63.277344 C 165.726562 61.371094 165.363281 60.007812 164.449219 58.917969 C 163.996094 58.460938 163.265625 58.1875 162.445312 58.1875 C 160.714844 58.1875 159.988281 59.371094 159.53125 60.734375 C 159.257812 61.460938 159.167969 62.277344 159.078125 63.277344 Z M 159.078125 70.273438 " fill-opacity="1" fill-rule="nonzero"/><g clip-path="url(#06d0a4eaff)"><path fill="#166734" d="M 206.003906 51.738281 C 206.003906 49.558594 205.914062 47.101562 205.273438 45.195312 C 204.636719 43.378906 203.636719 42.105469 202.085938 42.105469 C 199.539062 42.195312 198.71875 44.832031 198.71875 48.738281 C 198.71875 51.011719 199.71875 53.375 201.175781 55.917969 C 202.632812 58.460938 204.546875 61.097656 206.460938 63.914062 C 208.738281 67.277344 211.011719 70.730469 212.742188 74.089844 C 214.472656 77.453125 215.660156 80.90625 215.660156 84.542969 C 215.660156 88.996094 214.929688 93.175781 212.835938 96.265625 C 210.738281 99.355469 207.371094 101.351562 201.996094 101.351562 C 195.710938 101.351562 192.160156 98.992188 190.15625 95.355469 C 188.152344 91.71875 187.695312 86.90625 187.695312 81.90625 L 197.351562 80.996094 C 197.351562 83.816406 197.441406 86.632812 198.171875 88.722656 C 198.808594 90.902344 199.902344 92.355469 201.996094 92.355469 C 204.910156 92.355469 206.003906 89.265625 206.003906 84.996094 C 206.003906 82.816406 204.910156 80.269531 203.453125 77.636719 C 202.632812 76.363281 201.8125 75 200.902344 73.636719 C 198.992188 70.910156 196.894531 67.820312 194.710938 64.460938 C 192.523438 61.097656 190.882812 57.644531 189.882812 54.101562 C 189.335938 52.375 189.0625 50.554688 189.0625 48.738281 C 189.0625 45.105469 189.882812 41.195312 191.976562 38.199219 C 194.074219 35.289062 197.261719 33.199219 201.90625 33.109375 C 207.824219 33.019531 211.285156 35.472656 213.199219 39.015625 C 215.113281 42.652344 215.660156 47.101562 215.660156 50.828125 Z M 206.003906 51.738281 " fill-opacity="1" fill-rule="nonzero"/></g><g clip-path="url(#cf48c60926)"><path fill="#fdfdfd" d="M 223.148438 100.625 L 233.257812 33.835938 L 245.28125 33.835938 L 255.390625 100.625 L 245.828125 100.625 L 244.003906 86.996094 L 234.53125 86.996094 L 232.710938 100.625 Z M 239.816406 55.554688 L 239.542969 53.828125 L 238.996094 53.828125 L 238.722656 55.554688 L 235.898438 76.636719 L 242.636719 76.636719 Z M 239.816406 55.554688 " fill-opacity="1" fill-rule="nonzero"/></g><path fill="#fdfdfd" d="M 302.554688 71.820312 L 262.023438 92.902344 L 262.023438 84.085938 L 293.082031 68.277344 L 262.023438 52.464844 L 262.023438 43.648438 L 302.554688 64.730469 Z M 302.554688 71.820312 " fill-opacity="1" fill-rule="nonzero"/><path fill="#fdfdfd" d="M 49.617188 123.496094 C 50.300781 123.496094 51.414062 123.347656 52.023438 124.734375 C 52.324219 125.339844 54.550781 130.289062 54.90625 130.894531 C 55.261719 131.472656 55.359375 131.726562 55.613281 131.726562 C 56.019531 131.726562 56.472656 131.652344 57.941406 131.652344 C 59.308594 131.652344 59.710938 131.726562 59.964844 131.726562 C 60.117188 131.726562 60.167969 131.625 60.21875 131.472656 L 60.269531 130.96875 C 60.320312 130.816406 60.269531 130.714844 60.117188 130.714844 L 59.460938 130.714844 C 58.550781 130.714844 57.941406 130.3125 57.257812 129.253906 C 56.828125 128.570312 55.109375 124.988281 54.957031 124.734375 C 54.703125 124.230469 54.296875 123.472656 53.488281 123.269531 L 53.488281 123.167969 C 56.777344 122.816406 59.460938 120.796875 59.460938 118.324219 C 59.460938 114.839844 55.664062 114.664062 53.488281 114.664062 C 52.78125 114.664062 50.148438 114.738281 47.519531 114.738281 C 47.265625 114.738281 47.214844 114.789062 47.164062 114.941406 L 47.0625 115.472656 C 47.011719 115.621094 47.0625 115.671875 47.265625 115.671875 L 48.125 115.671875 C 48.984375 115.671875 49.136719 116.128906 48.882812 116.933594 L 44.835938 129.53125 C 44.632812 130.160156 44.179688 130.714844 43.570312 130.714844 L 42.914062 130.714844 C 42.710938 130.714844 42.660156 130.765625 42.660156 130.917969 L 42.558594 131.472656 C 42.507812 131.625 42.558594 131.726562 42.710938 131.726562 C 43.015625 131.726562 43.976562 131.652344 45.746094 131.652344 C 47.921875 131.652344 49.035156 131.726562 49.339844 131.726562 C 49.492188 131.726562 49.59375 131.675781 49.644531 131.523438 L 49.695312 130.917969 C 49.746094 130.816406 49.695312 130.714844 49.542969 130.714844 L 48.480469 130.714844 C 47.769531 130.714844 47.492188 130.261719 47.921875 128.898438 Z M 52.121094 115.570312 C 52.425781 115.519531 52.730469 115.519531 53.183594 115.519531 C 55.664062 115.519531 56.421875 117.160156 56.421875 118.222656 C 56.421875 120.039062 55.261719 121.453125 53.945312 122.007812 C 52.222656 122.714844 50.910156 122.613281 49.894531 122.613281 Z M 52.121094 115.570312 " fill-opacity="1" fill-rule="nonzero"/><path fill="#fdfdfd" d="M 68.035156 128.875 C 67.984375 128.824219 67.882812 128.875 67.832031 128.925781 C 67.277344 129.683594 66.265625 130.4375 65.101562 130.4375 C 64.394531 130.4375 63.734375 129.832031 63.734375 128.824219 C 63.734375 127.914062 63.886719 127.207031 63.988281 126.957031 C 64.949219 126.90625 66.316406 126.601562 67.683594 125.894531 C 69.148438 125.085938 70.007812 123.925781 70.007812 122.640625 C 70.007812 121.90625 69.402344 121.148438 68.238281 121.148438 C 66.871094 121.148438 65.457031 121.804688 64.445312 122.714844 C 62.367188 124.582031 61.304688 127.257812 61.304688 129.226562 C 61.304688 130.996094 62.316406 131.902344 63.988281 131.902344 C 66.214844 131.902344 67.933594 130.289062 68.492188 129.378906 C 68.542969 129.277344 68.542969 129.226562 68.414062 129.152344 Z M 67.023438 122.363281 C 67.582031 122.363281 67.78125 122.816406 67.78125 123.269531 C 67.78125 123.976562 67.277344 124.734375 66.71875 125.1875 C 65.859375 125.84375 64.644531 126.148438 64.191406 126.148438 C 64.496094 124.785156 65.757812 122.363281 67.023438 122.363281 Z M 67.023438 122.363281 " fill-opacity="1" fill-rule="nonzero"/><path fill="#fdfdfd" d="M 76.160156 128.519531 C 76.160156 127.359375 75.707031 126.476562 75.199219 125.792969 C 74.921875 125.414062 74.035156 124.382812 74.035156 123.523438 C 74.035156 122.414062 74.59375 122.058594 75.097656 122.058594 C 75.503906 122.058594 75.605469 122.460938 75.707031 122.765625 C 75.859375 123.421875 76.261719 123.625 76.71875 123.625 C 77.273438 123.625 77.679688 123.21875 77.679688 122.5625 C 77.679688 121.503906 76.566406 121.148438 75.707031 121.148438 C 73.328125 121.148438 71.960938 122.765625 71.960938 124.382812 C 71.910156 125.441406 72.390625 126.074219 72.898438 126.929688 C 73.429688 127.839844 74.085938 128.570312 74.035156 129.429688 C 74.035156 130.488281 73.480469 131.046875 72.769531 131.046875 C 72.316406 131.046875 72.113281 130.792969 71.960938 130.386719 C 71.757812 129.78125 71.355469 129.378906 70.746094 129.378906 C 70.191406 129.378906 69.785156 129.832031 69.785156 130.4375 C 69.785156 131.296875 70.644531 131.902344 72.316406 131.902344 C 74.59375 131.902344 76.160156 130.488281 76.160156 128.519531 Z M 76.160156 128.519531 " fill-opacity="1" fill-rule="nonzero"/><path fill="#fdfdfd" d="M 85.28125 128.875 C 85.230469 128.824219 85.128906 128.875 85.078125 128.925781 C 84.523438 129.683594 83.511719 130.4375 82.347656 130.4375 C 81.636719 130.4375 80.980469 129.832031 80.980469 128.824219 C 80.980469 127.914062 81.132812 127.207031 81.234375 126.957031 C 82.195312 126.90625 83.5625 126.601562 84.925781 125.894531 C 86.394531 125.085938 87.253906 123.925781 87.253906 122.640625 C 87.253906 121.90625 86.648438 121.148438 85.484375 121.148438 C 84.117188 121.148438 82.699219 121.804688 81.6875 122.714844 C 79.613281 124.582031 78.550781 127.257812 78.550781 129.226562 C 78.550781 130.996094 79.5625 131.902344 81.234375 131.902344 C 83.460938 131.902344 85.179688 130.289062 85.738281 129.378906 C 85.789062 129.277344 85.789062 129.226562 85.660156 129.152344 Z M 84.269531 122.363281 C 84.828125 122.363281 85.027344 122.816406 85.027344 123.269531 C 85.027344 123.976562 84.523438 124.734375 83.964844 125.1875 C 83.105469 125.84375 81.890625 126.148438 81.4375 126.148438 C 81.738281 124.785156 83.003906 122.363281 84.269531 122.363281 Z M 84.269531 122.363281 " fill-opacity="1" fill-rule="nonzero"/><path fill="#fdfdfd" d="M 97.253906 121.101562 C 97.101562 121.101562 96.949219 121.148438 96.847656 121.300781 L 96.441406 122.007812 C 96.140625 121.605469 95.632812 121.148438 94.519531 121.148438 C 91.128906 121.148438 87.585938 126.703125 87.585938 130.085938 C 87.585938 131.144531 88.5 131.902344 89.15625 131.902344 C 91.230469 131.902344 93.304688 129.226562 94.367188 127.664062 L 94.519531 127.714844 C 93.609375 130.339844 93.457031 130.894531 93.457031 131.246094 C 93.457031 131.652344 93.710938 131.902344 94.265625 131.902344 C 96.242188 131.902344 98.011719 129.78125 98.265625 129.277344 C 98.316406 129.125 98.316406 129.027344 98.265625 128.976562 L 97.960938 128.746094 C 97.859375 128.671875 97.808594 128.722656 97.707031 128.824219 C 97.503906 129.074219 96.492188 130.289062 96.140625 130.289062 C 95.9375 130.289062 95.835938 130.238281 95.835938 129.984375 C 95.835938 129.683594 96.796875 126.753906 96.898438 126.300781 C 97.101562 125.644531 98.316406 122.414062 98.769531 121.351562 C 98.820312 121.199219 98.769531 121.101562 98.617188 121.101562 Z M 90.675781 130.1875 C 90.269531 130.1875 90.066406 129.933594 90.066406 129.378906 C 90.066406 127.964844 90.777344 125.695312 92.191406 123.699219 C 92.851562 122.765625 93.609375 122.160156 94.265625 122.160156 C 94.976562 122.160156 95.429688 122.867188 95.429688 123.269531 C 95.429688 124.078125 95.175781 124.835938 94.824219 125.542969 C 94.367188 126.5 91.636719 130.1875 90.675781 130.1875 Z M 90.675781 130.1875 " fill-opacity="1" fill-rule="nonzero"/><path fill="#fdfdfd" d="M 101.976562 131.652344 C 102.128906 131.652344 102.230469 131.601562 102.28125 131.5 L 103.140625 128.925781 C 103.421875 128.066406 103.699219 127.410156 103.953125 126.855469 C 104.710938 125.390625 106.128906 123.320312 106.835938 123.320312 C 107.191406 123.320312 107.34375 123.472656 107.542969 123.625 C 107.746094 123.773438 108 123.824219 108.304688 123.824219 C 108.757812 123.824219 109.367188 123.167969 109.367188 122.414062 C 109.367188 121.65625 108.757812 121.148438 108.050781 121.148438 C 106.378906 121.148438 104.585938 124.230469 103.925781 125.644531 L 103.75 125.542969 C 104.304688 123.875 104.761719 122.5625 104.761719 122.109375 C 104.761719 121.65625 104.507812 121.148438 103.75 121.148438 C 101.675781 121.148438 100.207031 122.96875 99.75 123.726562 C 99.703125 123.824219 99.703125 123.925781 99.75 123.976562 L 100.054688 124.179688 C 100.15625 124.230469 100.257812 124.230469 100.308594 124.128906 C 100.664062 123.625 101.675781 122.664062 102.128906 122.664062 C 102.382812 122.664062 102.585938 122.867188 102.585938 123.070312 C 102.585938 123.523438 101.75 126.097656 101.371094 127.359375 L 100.105469 131.449219 C 100.054688 131.550781 100.15625 131.652344 100.308594 131.652344 Z M 101.976562 131.652344 " fill-opacity="1" fill-rule="nonzero"/><path fill="#fdfdfd" d="M 115.132812 129.226562 C 115.082031 129.175781 114.980469 129.226562 114.929688 129.328125 C 114.625 129.683594 113.640625 130.4375 112.828125 130.4375 C 112.171875 130.4375 111.792969 129.882812 111.792969 128.621094 C 111.792969 127.257812 112.148438 125.695312 112.777344 124.179688 C 113.261719 123.070312 113.742188 122.460938 114.296875 122.460938 C 114.703125 122.460938 114.929688 122.867188 115.082031 123.21875 C 115.234375 123.675781 115.535156 123.824219 115.941406 123.824219 C 116.449219 123.824219 117.003906 123.269531 117.003906 122.5625 C 117.003906 122.109375 116.574219 121.148438 115.257812 121.148438 C 112.121094 121.148438 109.363281 125.871094 109.363281 129.402344 C 109.363281 131.121094 110.628906 131.902344 111.640625 131.902344 C 113.511719 131.902344 115.15625 130.289062 115.535156 129.730469 C 115.636719 129.582031 115.585938 129.53125 115.484375 129.480469 Z M 115.132812 129.226562 " fill-opacity="1" fill-rule="nonzero"/><path fill="#fdfdfd" d="M 121.246094 124.683594 L 125.089844 115.648438 C 125.242188 115.269531 125.34375 115.015625 125.34375 114.863281 C 125.34375 114.714844 125.242188 114.613281 125.039062 114.613281 L 121.042969 114.613281 C 120.789062 114.613281 120.738281 114.664062 120.6875 114.8125 L 120.585938 115.269531 C 120.535156 115.421875 120.636719 115.519531 120.738281 115.519531 L 121.496094 115.519531 C 121.953125 115.519531 122.28125 115.722656 122.28125 116.027344 C 122.28125 116.253906 122.15625 116.683594 121.953125 117.210938 L 116.539062 131.296875 C 116.460938 131.5 116.511719 131.652344 116.742188 131.652344 L 118.359375 131.652344 C 118.539062 131.652344 118.613281 131.601562 118.664062 131.449219 L 119.980469 128.371094 C 120.28125 127.511719 120.789062 126.601562 121.394531 125.792969 C 122.105469 124.886719 123.976562 122.765625 125.089844 122.765625 C 125.695312 122.765625 125.847656 123.371094 125.847656 123.953125 C 125.847656 125.136719 125.394531 127.007812 124.886719 128.46875 C 124.484375 129.78125 123.925781 131.375 123.371094 131.375 C 123.015625 131.375 122.914062 131.046875 122.863281 130.691406 C 122.8125 130.289062 122.558594 129.832031 121.953125 129.832031 C 121.296875 129.832031 120.890625 130.488281 120.890625 131.09375 C 120.890625 131.902344 121.546875 132.457031 122.359375 132.457031 C 124.027344 132.457031 125.445312 131.09375 126.558594 129.074219 C 127.46875 127.460938 128.226562 125.339844 128.226562 123.496094 C 128.226562 122.363281 127.773438 121.148438 126.203125 121.148438 C 124.28125 121.148438 122.609375 123.019531 121.394531 124.835938 Z M 121.246094 124.683594 " fill-opacity="1" fill-rule="nonzero"/><path fill="#166734" d="M 147.402344 114.863281 C 147.402344 114.765625 147.351562 114.714844 147.199219 114.714844 L 146.898438 114.664062 C 146.695312 114.664062 146.644531 114.664062 146.644531 114.765625 C 146.542969 115.269531 146.390625 115.621094 146.238281 115.621094 C 146.085938 115.621094 145.988281 115.570312 145.886719 115.519531 C 145.480469 115.21875 144.265625 114.359375 142.898438 114.359375 C 139.609375 114.359375 138.195312 116.984375 138.195312 118.800781 C 138.195312 121.402344 139.507812 122.714844 141.078125 124.429688 C 142.191406 125.644531 143.457031 126.601562 143.457031 128.21875 C 143.457031 129.605469 142.34375 130.867188 140.722656 130.867188 C 139.15625 130.867188 137.183594 129.152344 137.890625 125.515625 C 137.890625 125.367188 137.839844 125.316406 137.738281 125.265625 L 137.332031 125.164062 C 137.183594 125.164062 137.132812 125.164062 137.082031 125.265625 L 135.207031 130.765625 C 135.15625 130.96875 135.15625 130.96875 135.308594 131.019531 L 135.613281 131.171875 C 135.765625 131.222656 135.816406 131.171875 135.867188 131.070312 C 136.070312 130.714844 136.320312 130.3125 136.472656 130.109375 C 136.625 129.960938 136.878906 129.910156 137.132812 130.160156 C 137.941406 131.070312 139.105469 132.03125 140.722656 132.03125 C 143.355469 132.03125 145.683594 130.3125 145.683594 127.082031 C 145.683594 124.28125 144.011719 122.867188 142.847656 121.707031 C 141.683594 120.542969 140.570312 119.738281 140.570312 117.96875 C 140.570312 116.882812 141.382812 115.519531 142.847656 115.519531 C 145.429688 115.519531 145.734375 118.550781 145.582031 119.558594 C 145.582031 119.710938 145.632812 119.8125 145.835938 119.8125 L 146.289062 119.8125 C 146.390625 119.8125 146.441406 119.761719 146.492188 119.660156 Z M 147.402344 114.863281 " fill-opacity="1" fill-rule="nonzero"/><path fill="#166734" d="M 150.738281 131.902344 C 152.257812 131.902344 153.417969 131.347656 154.382812 130.238281 C 155.898438 128.570312 156.558594 125.945312 156.558594 124.332031 C 156.558594 122.058594 154.886719 121.148438 153.417969 121.148438 C 152.054688 121.148438 150.839844 121.65625 149.828125 122.765625 C 148.410156 124.304688 147.703125 126.324219 147.703125 128.445312 C 147.703125 130.765625 149.246094 131.902344 150.738281 131.902344 Z M 150.382812 130.539062 C 149.828125 130.539062 149.320312 130.035156 149.320312 129.355469 C 149.320312 128.34375 149.828125 126.828125 150.664062 125.414062 C 151.902344 123.347656 152.863281 122.460938 153.902344 122.460938 C 154.632812 122.460938 154.988281 123.042969 154.988281 123.597656 C 154.988281 124.507812 154.203125 126.601562 153.269531 128.191406 C 152.28125 129.832031 151.371094 130.539062 150.382812 130.539062 Z M 150.382812 130.539062 " fill-opacity="1" fill-rule="nonzero"/><g clip-path="url(#305d3eceee)"><path fill="#166734" d="M 163.316406 121.707031 C 164.074219 119.003906 164.886719 115.34375 166.859375 115.34375 C 167.515625 115.34375 167.71875 115.824219 167.769531 116.078125 C 167.871094 116.734375 168.171875 117.238281 169.136719 117.238281 C 169.742188 117.238281 170.300781 116.734375 170.300781 116.027344 C 170.300781 115.269531 169.488281 114.359375 167.617188 114.359375 C 165.996094 114.359375 164.429688 115.371094 163.773438 116.128906 C 162.050781 117.996094 161.644531 119.710938 160.886719 121.707031 L 158.761719 121.707031 C 158.558594 121.707031 158.507812 121.804688 158.457031 121.957031 L 158.332031 122.5625 C 158.308594 122.714844 158.355469 122.816406 158.507812 122.816406 L 160.683594 122.816406 L 158.40625 131.347656 C 157.195312 135.96875 155.980469 138.085938 154.816406 138.085938 C 154.511719 138.085938 154.359375 137.9375 154.308594 137.683594 C 154.257812 137.027344 153.855469 136.371094 153.042969 136.371094 C 152.335938 136.371094 151.878906 136.925781 151.878906 137.582031 C 151.878906 138.492188 152.691406 139.148438 154.003906 139.148438 C 156.964844 139.148438 158.988281 135.867188 160.382812 132.054688 C 161.445312 129.125 162.558594 124.785156 163.113281 122.816406 L 165.644531 122.816406 C 165.847656 122.816406 165.898438 122.765625 165.921875 122.613281 L 166.046875 121.957031 C 166.097656 121.804688 166.046875 121.707031 165.898438 121.707031 Z M 163.316406 121.707031 " fill-opacity="1" fill-rule="nonzero"/></g><path fill="#166734" d="M 170.726562 122.816406 L 173.355469 122.816406 C 173.507812 122.816406 173.585938 122.789062 173.609375 122.691406 L 173.8125 121.957031 C 173.863281 121.804688 173.8125 121.707031 173.710938 121.707031 L 171.105469 121.707031 L 172.75 118.375 C 172.851562 118.121094 172.75 117.867188 172.597656 117.867188 C 172.496094 117.867188 172.34375 117.96875 172.195312 118.019531 C 171.992188 118.171875 170.980469 118.625 170.472656 118.675781 C 170.015625 118.726562 169.917969 118.777344 169.816406 119.03125 L 168.777344 121.707031 L 166.828125 121.707031 C 166.679688 121.707031 166.628906 121.757812 166.578125 121.90625 L 166.375 122.5625 C 166.324219 122.765625 166.375 122.816406 166.527344 122.816406 L 168.398438 122.816406 L 165.714844 129.730469 C 165.566406 130.1875 165.464844 130.691406 165.464844 131.144531 C 165.464844 131.5 165.765625 131.902344 166.527344 131.902344 C 168.804688 131.902344 171.082031 129.78125 171.382812 129.378906 C 171.433594 129.277344 171.433594 129.226562 171.332031 129.175781 L 171.054688 128.875 C 170.953125 128.773438 170.902344 128.773438 170.800781 128.875 C 170.648438 129.027344 169.082031 130.289062 168.5 130.289062 C 168.195312 130.289062 168.042969 130.085938 168.042969 129.832031 C 168.042969 129.53125 168.296875 128.925781 168.5 128.371094 Z M 170.726562 122.816406 " fill-opacity="1" fill-rule="nonzero"/><path fill="#166734" d="M 178.039062 123.21875 C 179.054688 123.21875 180.015625 122.5625 180.316406 122.414062 L 180.445312 122.5625 C 179.304688 123.875 177.027344 127.207031 177.027344 129.378906 C 177.027344 130.945312 178.089844 131.902344 179.457031 131.902344 C 181.378906 131.902344 183 130.238281 183.605469 129.429688 C 183.757812 130.4375 184.46875 131.902344 186.085938 131.902344 C 188.035156 131.902344 189.070312 130.714844 189.882812 129.582031 C 191.097656 127.914062 191.804688 125.59375 191.804688 123.726562 C 191.804688 121.804688 191.070312 121.148438 190.109375 121.148438 C 189.453125 121.148438 188.945312 121.65625 188.945312 122.261719 C 188.945312 122.765625 189.402344 123.320312 189.601562 123.523438 C 189.855469 123.773438 190.132812 124.683594 190.132812 125.542969 C 190.132812 128.042969 188.566406 129.882812 186.894531 129.882812 C 185.730469 129.882812 185.074219 128.976562 185.074219 128.015625 C 185.074219 127.359375 185.378906 126.300781 185.65625 125.390625 C 186.113281 123.976562 186.71875 122.714844 186.71875 122.160156 C 186.71875 121.757812 186.414062 121.453125 185.910156 121.453125 C 185.402344 121.453125 184.746094 121.707031 184.59375 122.3125 C 184.339844 123.320312 184.316406 124.53125 184.164062 125.390625 C 183.960938 126.601562 183.554688 127.992188 183.203125 128.496094 C 182.492188 129.480469 181.582031 129.933594 180.722656 129.933594 C 179.863281 129.882812 179.28125 129.175781 179.28125 128.117188 C 179.28125 125.894531 181.230469 122.613281 181.9375 121.757812 C 182.242188 121.453125 182.039062 121.199219 181.734375 121.25 L 179.304688 121.402344 L 177.28125 121.402344 C 176.21875 121.402344 175.5625 121.757812 175.105469 122.261719 C 174.5 122.917969 173.992188 123.625 173.992188 124.683594 C 173.992188 125.894531 174.703125 126.550781 175.308594 126.550781 C 176.015625 126.550781 176.371094 126.097656 176.371094 125.59375 C 176.371094 124.9375 175.964844 124.734375 175.8125 124.632812 C 175.5625 124.53125 175.054688 124.332031 175.105469 123.875 C 175.105469 123.472656 175.5625 123.21875 176.015625 123.21875 Z M 178.039062 123.21875 " fill-opacity="1" fill-rule="nonzero"/><path fill="#166734" d="M 202.273438 121.101562 C 202.121094 121.101562 201.96875 121.148438 201.867188 121.300781 L 201.464844 122.007812 C 201.160156 121.605469 200.65625 121.148438 199.542969 121.148438 C 196.152344 121.148438 192.609375 126.703125 192.609375 130.085938 C 192.609375 131.144531 193.519531 131.902344 194.175781 131.902344 C 196.253906 131.902344 198.328125 129.226562 199.390625 127.664062 L 199.542969 127.714844 C 198.628906 130.339844 198.480469 130.894531 198.480469 131.246094 C 198.480469 131.652344 198.730469 131.902344 199.289062 131.902344 C 201.261719 131.902344 203.03125 129.78125 203.285156 129.277344 C 203.335938 129.125 203.335938 129.027344 203.285156 128.976562 L 202.980469 128.746094 C 202.882812 128.671875 202.832031 128.722656 202.730469 128.824219 C 202.527344 129.074219 201.515625 130.289062 201.160156 130.289062 C 200.957031 130.289062 200.855469 130.238281 200.855469 129.984375 C 200.855469 129.683594 201.816406 126.753906 201.917969 126.300781 C 202.121094 125.644531 203.335938 122.414062 203.792969 121.351562 C 203.84375 121.199219 203.792969 121.101562 203.640625 121.101562 Z M 195.695312 130.1875 C 195.289062 130.1875 195.089844 129.933594 195.089844 129.378906 C 195.089844 127.964844 195.796875 125.695312 197.214844 123.699219 C 197.871094 122.765625 198.628906 122.160156 199.289062 122.160156 C 199.996094 122.160156 200.453125 122.867188 200.453125 123.269531 C 200.453125 124.078125 200.199219 124.835938 199.84375 125.542969 C 199.390625 126.5 196.65625 130.1875 195.695312 130.1875 Z M 195.695312 130.1875 " fill-opacity="1" fill-rule="nonzero"/><path fill="#166734" d="M 207 131.652344 C 207.152344 131.652344 207.253906 131.601562 207.304688 131.5 L 208.164062 128.925781 C 208.441406 128.066406 208.71875 127.410156 208.972656 126.855469 C 209.730469 125.390625 211.148438 123.320312 211.855469 123.320312 C 212.210938 123.320312 212.363281 123.472656 212.566406 123.625 C 212.769531 123.773438 213.019531 123.824219 213.324219 123.824219 C 213.78125 123.824219 214.386719 123.167969 214.386719 122.414062 C 214.386719 121.65625 213.78125 121.148438 213.070312 121.148438 C 211.402344 121.148438 209.605469 124.230469 208.949219 125.644531 L 208.769531 125.542969 C 209.328125 123.875 209.78125 122.5625 209.78125 122.109375 C 209.78125 121.65625 209.53125 121.148438 208.769531 121.148438 C 206.695312 121.148438 205.230469 122.96875 204.773438 123.726562 C 204.722656 123.824219 204.722656 123.925781 204.773438 123.976562 L 205.078125 124.179688 C 205.179688 124.230469 205.277344 124.230469 205.328125 124.128906 C 205.683594 123.625 206.695312 122.664062 207.152344 122.664062 C 207.40625 122.664062 207.605469 122.867188 207.605469 123.070312 C 207.605469 123.523438 206.773438 126.097656 206.390625 127.359375 L 205.128906 131.449219 C 205.078125 131.550781 205.179688 131.652344 205.328125 131.652344 Z M 207 131.652344 " fill-opacity="1" fill-rule="nonzero"/><path fill="#166734" d="M 221.039062 128.875 C 220.988281 128.824219 220.886719 128.875 220.835938 128.925781 C 220.28125 129.683594 219.269531 130.4375 218.105469 130.4375 C 217.394531 130.4375 216.738281 129.832031 216.738281 128.824219 C 216.738281 127.914062 216.890625 127.207031 216.992188 126.957031 C 217.953125 126.90625 219.320312 126.601562 220.683594 125.894531 C 222.152344 125.085938 223.011719 123.925781 223.011719 122.640625 C 223.011719 121.90625 222.40625 121.148438 221.242188 121.148438 C 219.875 121.148438 218.457031 121.804688 217.445312 122.714844 C 215.371094 124.582031 214.308594 127.257812 214.308594 129.226562 C 214.308594 130.996094 215.320312 131.902344 216.992188 131.902344 C 219.21875 131.902344 220.9375 130.289062 221.496094 129.378906 C 221.542969 129.277344 221.542969 129.226562 221.417969 129.152344 Z M 220.027344 122.363281 C 220.582031 122.363281 220.785156 122.816406 220.785156 123.269531 C 220.785156 123.976562 220.28125 124.734375 219.722656 125.1875 C 218.863281 125.84375 217.648438 126.148438 217.191406 126.148438 C 217.496094 124.785156 218.761719 122.363281 220.027344 122.363281 Z M 220.027344 122.363281 " fill-opacity="1" fill-rule="nonzero"/><path fill="#fdfdfd" d="M 240.507812 124.078125 L 239.191406 128.722656 C 238.6875 130.566406 238.128906 130.714844 237.21875 130.714844 L 236.789062 130.714844 C 236.664062 130.714844 236.585938 130.765625 236.5625 130.917969 L 236.460938 131.449219 C 236.433594 131.625 236.460938 131.726562 236.613281 131.726562 C 237.117188 131.726562 237.875 131.652344 239.851562 131.652344 C 241.824219 131.652344 242.835938 131.726562 243.113281 131.726562 C 243.339844 131.726562 243.417969 131.652344 243.441406 131.523438 L 243.542969 130.917969 C 243.570312 130.792969 243.519531 130.714844 243.367188 130.714844 L 242.734375 130.714844 C 242.226562 130.714844 241.824219 130.414062 241.824219 130.011719 C 241.824219 129.683594 241.976562 129.027344 242.078125 128.621094 L 245.820312 114.664062 C 245.871094 114.484375 245.769531 114.359375 245.566406 114.359375 C 245.367188 114.359375 245.011719 114.484375 244.554688 114.5625 C 243.898438 114.6875 243.289062 114.738281 242.9375 114.738281 C 242.53125 114.738281 242.429688 114.789062 242.277344 114.992188 L 230.464844 128.949219 C 229.578125 130.011719 228.363281 130.714844 227.453125 130.714844 L 227.097656 130.714844 C 226.996094 130.714844 226.921875 130.765625 226.894531 130.917969 L 226.796875 131.472656 C 226.769531 131.652344 226.84375 131.726562 226.996094 131.726562 C 227.300781 131.726562 228.160156 131.652344 229.984375 131.652344 C 232.109375 131.652344 233.171875 131.726562 233.421875 131.726562 C 233.574219 131.726562 233.652344 131.652344 233.675781 131.5 L 233.777344 130.917969 C 233.804688 130.792969 233.753906 130.714844 233.625 130.714844 L 232.867188 130.714844 C 232.210938 130.714844 231.90625 130.464844 231.90625 130.058594 C 231.90625 129.632812 232.511719 128.773438 233.222656 127.8125 L 236.15625 124.078125 Z M 240.8125 123.167969 L 236.863281 123.167969 L 242.175781 116.503906 C 242.378906 116.304688 242.785156 116.355469 242.683594 116.707031 Z M 240.8125 123.167969 " fill-opacity="1" fill-rule="nonzero"/><path fill="#fdfdfd" d="M 246.734375 128.46875 C 246.484375 129.175781 245.925781 130.589844 245.925781 130.996094 C 245.925781 131.5 246.332031 131.902344 246.785156 131.902344 C 249.011719 131.902344 251.1875 129.730469 251.289062 129.582031 C 251.390625 129.429688 251.339844 129.378906 251.289062 129.277344 L 250.984375 129.027344 C 250.886719 128.925781 250.835938 128.925781 250.734375 128.976562 C 250.429688 129.328125 249.417969 130.289062 248.910156 130.289062 C 248.40625 130.289062 248.660156 129.429688 248.910156 128.773438 L 254.023438 114.992188 C 254.097656 114.765625 254.046875 114.613281 253.820312 114.613281 L 249.921875 114.613281 C 249.796875 114.613281 249.746094 114.664062 249.722656 114.738281 L 249.570312 115.320312 C 249.542969 115.445312 249.570312 115.519531 249.671875 115.519531 L 250.480469 115.519531 C 251.238281 115.519531 251.265625 116.175781 250.933594 117.0625 Z M 246.734375 128.46875 " fill-opacity="1" fill-rule="nonzero"/><path fill="#fdfdfd" d="M 253.257812 128.46875 C 253.003906 129.175781 252.449219 130.589844 252.449219 130.996094 C 252.449219 131.5 252.851562 131.902344 253.308594 131.902344 C 255.535156 131.902344 257.710938 129.730469 257.8125 129.582031 C 257.914062 129.429688 257.863281 129.378906 257.8125 129.277344 L 257.507812 129.027344 C 257.40625 128.925781 257.355469 128.925781 257.253906 128.976562 C 256.953125 129.328125 255.941406 130.289062 255.433594 130.289062 C 254.929688 130.289062 255.179688 129.429688 255.433594 128.773438 L 260.542969 114.992188 C 260.621094 114.765625 260.570312 114.613281 260.34375 114.613281 L 256.445312 114.613281 C 256.320312 114.613281 256.269531 114.664062 256.242188 114.738281 L 256.09375 115.320312 C 256.066406 115.445312 256.09375 115.519531 256.191406 115.519531 L 257.003906 115.519531 C 257.761719 115.519531 257.785156 116.175781 257.457031 117.0625 Z M 253.257812 128.46875 " fill-opacity="1" fill-rule="nonzero"/><path fill="#fdfdfd" d="M 264.816406 118.097656 C 265.726562 118.097656 266.308594 117.210938 266.308594 116.632812 C 266.308594 116 265.777344 115.371094 264.765625 115.371094 C 263.980469 115.371094 263.347656 116.050781 263.347656 116.734375 C 263.347656 117.363281 263.804688 118.097656 264.816406 118.097656 Z M 264.335938 124.582031 C 264.765625 123.398438 265.09375 122.460938 265.09375 121.957031 C 265.09375 121.453125 264.789062 121.148438 264.183594 121.148438 C 261.957031 121.148438 259.679688 124.078125 259.527344 124.230469 C 259.476562 124.332031 259.527344 124.382812 259.628906 124.457031 L 259.882812 124.683594 C 259.984375 124.785156 260.085938 124.785156 260.1875 124.683594 C 260.539062 124.28125 261.703125 122.96875 262.109375 122.96875 C 262.3125 122.96875 262.414062 123.070312 262.414062 123.269531 C 262.414062 123.574219 262.261719 124.054688 262.007812 124.734375 L 261.300781 126.703125 C 260.285156 129.503906 259.882812 130.691406 259.882812 131.195312 C 259.882812 131.601562 260.085938 131.902344 260.617188 131.902344 C 263.375 131.902344 265.144531 129.480469 265.296875 129.277344 C 265.398438 129.175781 265.347656 129.125 265.246094 129.027344 L 264.96875 128.746094 C 264.890625 128.671875 264.789062 128.671875 264.738281 128.773438 C 264.589844 128.976562 263.273438 130.339844 262.765625 130.386719 C 262.5625 130.386719 262.460938 130.238281 262.460938 130.035156 C 262.460938 129.78125 262.5625 129.378906 262.917969 128.417969 Z M 264.335938 124.582031 " fill-opacity="1" fill-rule="nonzero"/><path fill="#fdfdfd" d="M 276.097656 121.101562 C 275.945312 121.101562 275.796875 121.148438 275.695312 121.300781 L 275.289062 122.007812 C 274.984375 121.605469 274.480469 121.148438 273.367188 121.148438 C 269.976562 121.148438 266.433594 126.703125 266.433594 130.085938 C 266.433594 131.144531 267.34375 131.902344 268.003906 131.902344 C 270.078125 131.902344 272.152344 129.226562 273.214844 127.664062 L 273.367188 127.714844 C 272.457031 130.339844 272.304688 130.894531 272.304688 131.246094 C 272.304688 131.652344 272.558594 131.902344 273.113281 131.902344 C 275.085938 131.902344 276.859375 129.78125 277.109375 129.277344 C 277.160156 129.125 277.160156 129.027344 277.109375 128.976562 L 276.808594 128.746094 C 276.707031 128.671875 276.65625 128.722656 276.554688 128.824219 C 276.351562 129.074219 275.339844 130.289062 274.984375 130.289062 C 274.78125 130.289062 274.683594 130.238281 274.683594 129.984375 C 274.683594 129.683594 275.644531 126.753906 275.746094 126.300781 C 275.945312 125.644531 277.160156 122.414062 277.617188 121.351562 C 277.667969 121.199219 277.617188 121.101562 277.464844 121.101562 Z M 269.519531 130.1875 C 269.117188 130.1875 268.914062 129.933594 268.914062 129.378906 C 268.914062 127.964844 269.621094 125.695312 271.039062 123.699219 C 271.695312 122.765625 272.457031 122.160156 273.113281 122.160156 C 273.820312 122.160156 274.277344 122.867188 274.277344 123.269531 C 274.277344 124.078125 274.023438 124.835938 273.671875 125.542969 C 273.214844 126.5 270.480469 130.1875 269.519531 130.1875 Z M 269.519531 130.1875 " fill-opacity="1" fill-rule="nonzero"/><path fill="#fdfdfd" d="M 281.785156 129.175781 C 282.191406 128.167969 282.644531 127.410156 283.152344 126.601562 C 284.214844 124.886719 286.339844 122.867188 287.097656 122.867188 C 287.453125 122.867188 287.679688 123.070312 287.679688 123.472656 C 287.679688 123.773438 286.972656 125.695312 286.59375 126.753906 C 285.785156 128.976562 285.074219 130.691406 285.074219 131.144531 C 285.074219 131.601562 285.378906 131.902344 285.933594 131.902344 C 288.0625 131.902344 289.832031 130.136719 290.136719 129.730469 C 290.238281 129.582031 290.238281 129.480469 290.136719 129.429688 L 289.882812 129.226562 C 289.78125 129.125 289.679688 129.125 289.578125 129.175781 C 289.324219 129.53125 288.363281 130.386719 288.011719 130.386719 C 287.808594 130.386719 287.707031 130.238281 287.707031 129.984375 C 287.707031 129.632812 288.0625 128.671875 288.71875 127.007812 C 289.753906 124.40625 290.085938 123.21875 290.085938 122.5625 C 290.085938 121.855469 289.578125 121.148438 288.640625 121.148438 C 286.238281 121.148438 283.910156 124.332031 283.152344 125.492188 L 283 125.390625 C 283.457031 124.28125 284.191406 122.5625 284.191406 122.007812 C 284.191406 121.65625 283.960938 121.148438 283.226562 121.148438 C 280.925781 121.148438 279.257812 123.070312 278.902344 123.523438 C 278.800781 123.625 278.851562 123.726562 278.953125 123.773438 L 279.230469 124.054688 C 279.308594 124.128906 279.40625 124.128906 279.457031 124.027344 C 279.863281 123.625 280.851562 122.714844 281.304688 122.714844 C 281.53125 122.714844 281.683594 122.867188 281.683594 123.117188 C 281.683594 123.472656 281.078125 125.039062 280.519531 126.652344 L 278.800781 131.324219 C 278.75 131.472656 278.777344 131.652344 279.003906 131.652344 L 280.621094 131.652344 C 280.875 131.652344 280.925781 131.601562 280.976562 131.5 Z M 281.785156 129.175781 " fill-opacity="1" fill-rule="nonzero"/><path fill="#fdfdfd" d="M 297.785156 129.226562 C 297.734375 129.175781 297.632812 129.226562 297.582031 129.328125 C 297.277344 129.683594 296.289062 130.4375 295.480469 130.4375 C 294.824219 130.4375 294.445312 129.882812 294.445312 128.621094 C 294.445312 127.257812 294.796875 125.695312 295.429688 124.179688 C 295.910156 123.070312 296.390625 122.460938 296.949219 122.460938 C 297.351562 122.460938 297.582031 122.867188 297.734375 123.21875 C 297.882812 123.675781 298.1875 123.824219 298.59375 123.824219 C 299.097656 123.824219 299.65625 123.269531 299.65625 122.5625 C 299.65625 122.109375 299.226562 121.148438 297.910156 121.148438 C 294.773438 121.148438 292.015625 125.871094 292.015625 129.402344 C 292.015625 131.121094 293.28125 131.902344 294.292969 131.902344 C 296.164062 131.902344 297.808594 130.289062 298.1875 129.730469 C 298.289062 129.582031 298.238281 129.53125 298.136719 129.480469 Z M 297.785156 129.226562 " fill-opacity="1" fill-rule="nonzero"/><path fill="#fdfdfd" d="M 306.722656 128.875 C 306.671875 128.824219 306.570312 128.875 306.519531 128.925781 C 305.964844 129.683594 304.953125 130.4375 303.789062 130.4375 C 303.082031 130.4375 302.421875 129.832031 302.421875 128.824219 C 302.421875 127.914062 302.574219 127.207031 302.675781 126.957031 C 303.636719 126.90625 305.003906 126.601562 306.371094 125.894531 C 307.835938 125.085938 308.695312 123.925781 308.695312 122.640625 C 308.695312 121.90625 308.089844 121.148438 306.925781 121.148438 C 305.558594 121.148438 304.144531 121.804688 303.128906 122.714844 C 301.054688 124.582031 299.992188 127.257812 299.992188 129.226562 C 299.992188 130.996094 301.003906 131.902344 302.675781 131.902344 C 304.902344 131.902344 306.621094 130.289062 307.179688 129.378906 C 307.230469 129.277344 307.230469 129.226562 307.101562 129.152344 Z M 305.710938 122.363281 C 306.269531 122.363281 306.46875 122.816406 306.46875 123.269531 C 306.46875 123.976562 305.964844 124.734375 305.40625 125.1875 C 304.546875 125.84375 303.332031 126.148438 302.878906 126.148438 C 303.179688 124.785156 304.445312 122.363281 305.710938 122.363281 Z M 305.710938 122.363281 " fill-opacity="1" fill-rule="nonzero"/></svg>