<svg xmlns="http://www.w3.org/2000/svg" xmlns:xlink="http://www.w3.org/1999/xlink" width="300" zoomAndPan="magnify" viewBox="0 0 224.87999 225" height="300" preserveAspectRatio="xMidYMid meet" version="1.0"><defs><g/><clipPath id="4cf7701254"><path d="M 0 0.0585938 L 224.761719 0.0585938 L 224.761719 224.9375 L 0 224.9375 Z M 0 0.0585938 " clip-rule="nonzero"/></clipPath><clipPath id="34f336c588"><path d="M 112.441406 0.0585938 C 50.339844 0.0585938 0 50.402344 0 112.5 C 0 174.597656 50.339844 224.941406 112.441406 224.941406 C 174.539062 224.941406 224.878906 174.597656 224.878906 112.5 C 224.878906 50.402344 174.539062 0.0585938 112.441406 0.0585938 Z M 112.441406 0.0585938 " clip-rule="nonzero"/></clipPath></defs><g clip-path="url(#4cf7701254)"><g clip-path="url(#34f336c588)"><path fill="#196734" d="M 0 0.0585938 L 224.878906 0.0585938 L 224.878906 224.941406 L 0 224.941406 Z M 0 0.0585938 " fill-opacity="1" fill-rule="nonzero"/></g></g><g fill="#ffffff" fill-opacity="1"><g transform="translate(20.261724, 152.978398)"><g><path d="M 31.625 -56.28125 C 25.988281 -50.832031 21.4375 -43.332031 17.96875 -33.78125 C 14.5 -24.226562 12.320312 -12.96875 11.4375 0 L 31.484375 0 C 31.972656 -15.34375 34.394531 -28.0625 38.75 -38.15625 C 43.113281 -48.257812 49.054688 -54.894531 56.578125 -58.0625 L 56.578125 -74.25 L 3.5625 -74.25 L 3.5625 -56.28125 Z M 31.625 -56.28125 "/></g></g></g><g fill="#ffffff" fill-opacity="1"><g transform="translate(70.966699, 152.978398)"><g><path d="M 28.21875 1.046875 C 20.289062 1.046875 14.175781 -2.269531 9.875 -8.90625 C 5.570312 -15.539062 3.421875 -24.945312 3.421875 -37.125 C 3.421875 -49.300781 5.570312 -58.707031 9.875 -65.34375 C 14.175781 -71.976562 20.289062 -75.296875 28.21875 -75.296875 C 36.132812 -75.296875 42.222656 -71.976562 46.484375 -65.34375 C 50.742188 -58.707031 52.875 -49.300781 52.875 -37.125 C 52.875 -24.945312 50.742188 -15.539062 46.484375 -8.90625 C 42.222656 -2.269531 36.132812 1.046875 28.21875 1.046875 Z M 28.359375 -16.921875 C 30.046875 -16.921875 31.332031 -18.675781 32.21875 -22.1875 C 33.113281 -25.707031 33.609375 -30.6875 33.703125 -37.125 C 33.609375 -43.5625 33.113281 -48.535156 32.21875 -52.046875 C 31.332031 -55.566406 30.046875 -57.328125 28.359375 -57.328125 C 26.578125 -57.328125 25.191406 -55.566406 24.203125 -52.046875 C 23.210938 -48.535156 22.71875 -43.5625 22.71875 -37.125 C 22.71875 -30.6875 23.210938 -25.707031 24.203125 -22.1875 C 25.191406 -18.675781 26.578125 -16.921875 28.359375 -16.921875 Z M 28.359375 -16.921875 "/></g></g></g><g fill="#ffffff" fill-opacity="1"><g transform="translate(121.671971, 152.978398)"><g/></g></g><g fill="#ffffff" fill-opacity="1"><g transform="translate(133.623707, 152.978398)"><g><path d="M 16.1875 -43.65625 C 12.03125 -43.65625 8.8125 -45.039062 6.53125 -47.8125 C 4.257812 -50.59375 3.125 -54.554688 3.125 -59.703125 C 3.125 -64.648438 4.257812 -68.484375 6.53125 -71.203125 C 8.8125 -73.929688 12.03125 -75.296875 16.1875 -75.296875 C 20.445312 -75.296875 23.710938 -73.929688 25.984375 -71.203125 C 28.265625 -68.484375 29.40625 -64.648438 29.40625 -59.703125 C 29.40625 -54.554688 28.265625 -50.59375 25.984375 -47.8125 C 23.710938 -45.039062 20.445312 -43.65625 16.1875 -43.65625 Z M 63.265625 -74.25 L 27.765625 0 L 8.3125 0 L 43.953125 -74.25 Z M 16.1875 -54.953125 C 17.769531 -54.953125 18.5625 -56.484375 18.5625 -59.546875 C 18.5625 -62.421875 17.769531 -63.859375 16.1875 -63.859375 C 14.601562 -63.859375 13.8125 -62.421875 13.8125 -59.546875 C 13.8125 -56.484375 14.601562 -54.953125 16.1875 -54.953125 Z M 54.65625 1.1875 C 50.488281 1.1875 47.265625 -0.171875 44.984375 -2.890625 C 42.710938 -5.617188 41.578125 -9.503906 41.578125 -14.546875 C 41.578125 -19.597656 42.710938 -23.507812 44.984375 -26.28125 C 47.265625 -29.050781 50.488281 -30.4375 54.65625 -30.4375 C 58.90625 -30.4375 62.164062 -29.050781 64.4375 -26.28125 C 66.71875 -23.507812 67.859375 -19.597656 67.859375 -14.546875 C 67.859375 -9.503906 66.71875 -5.617188 64.4375 -2.890625 C 62.164062 -0.171875 58.90625 1.1875 54.65625 1.1875 Z M 54.65625 -10.25 C 56.238281 -10.25 57.03125 -11.734375 57.03125 -14.703125 C 57.03125 -17.671875 56.238281 -19.15625 54.65625 -19.15625 C 53.070312 -19.15625 52.28125 -17.671875 52.28125 -14.703125 C 52.28125 -11.734375 53.070312 -10.25 54.65625 -10.25 Z M 54.65625 -10.25 "/></g></g></g></svg>