<svg xmlns="http://www.w3.org/2000/svg" xmlns:xlink="http://www.w3.org/1999/xlink" width="300" zoomAndPan="magnify" viewBox="0 0 224.87999 225" height="300" preserveAspectRatio="xMidYMid meet" version="1.0"><defs><g/><clipPath id="30d50354db"><path d="M 0 0.0585938 L 224.761719 0.0585938 L 224.761719 224.9375 L 0 224.9375 Z M 0 0.0585938 " clip-rule="nonzero"/></clipPath><clipPath id="8a95b5aee2"><path d="M 112.441406 0.0585938 C 50.339844 0.0585938 0 50.402344 0 112.5 C 0 174.597656 50.339844 224.941406 112.441406 224.941406 C 174.539062 224.941406 224.878906 174.597656 224.878906 112.5 C 224.878906 50.402344 174.539062 0.0585938 112.441406 0.0585938 Z M 112.441406 0.0585938 " clip-rule="nonzero"/></clipPath></defs><g clip-path="url(#30d50354db)"><g clip-path="url(#8a95b5aee2)"><path fill="#196734" d="M 0 0.0585938 L 224.878906 0.0585938 L 224.878906 224.941406 L 0 224.941406 Z M 0 0.0585938 " fill-opacity="1" fill-rule="nonzero"/></g></g><g fill="#ffffff" fill-opacity="1"><g transform="translate(18.188611, 152.978398)"><g><path d="M 27.921875 0.75 C 17.222656 0.75 8.859375 -3.554688 2.828125 -12.171875 L 17.828125 -22.578125 C 20.796875 -19.003906 24.160156 -17.21875 27.921875 -17.21875 C 31.972656 -17.21875 35.160156 -18.726562 37.484375 -21.75 C 39.816406 -24.769531 41.234375 -29.050781 41.734375 -34.59375 C 36.972656 -29.644531 31.28125 -27.171875 24.65625 -27.171875 C 17.820312 -27.367188 12.546875 -29.398438 8.828125 -33.265625 C 5.117188 -37.128906 3.265625 -42.570312 3.265625 -49.59375 C 3.265625 -58.007812 5.691406 -64.445312 10.546875 -68.90625 C 15.398438 -73.363281 22.328125 -75.492188 31.328125 -75.296875 C 39.742188 -75.390625 46.226562 -72.144531 50.78125 -65.5625 C 55.34375 -58.976562 57.625 -49.597656 57.625 -37.421875 C 57.625 -25.242188 55.046875 -15.835938 49.890625 -9.203125 C 44.742188 -2.566406 37.421875 0.75 27.921875 0.75 Z M 28.65625 -44.84375 C 32.820312 -44.84375 36.238281 -46.820312 38.90625 -50.78125 C 37.125 -55.144531 34.597656 -57.328125 31.328125 -57.328125 C 25.097656 -57.328125 21.984375 -55.144531 21.984375 -50.78125 C 21.984375 -47.019531 24.207031 -45.039062 28.65625 -44.84375 Z M 28.65625 -44.84375 "/></g></g></g><g fill="#ffffff" fill-opacity="1"><g transform="translate(73.051318, 152.978398)"><g><path d="M 28.21875 1.046875 C 20.289062 1.046875 14.175781 -2.269531 9.875 -8.90625 C 5.570312 -15.539062 3.421875 -24.945312 3.421875 -37.125 C 3.421875 -49.300781 5.570312 -58.707031 9.875 -65.34375 C 14.175781 -71.976562 20.289062 -75.296875 28.21875 -75.296875 C 36.132812 -75.296875 42.222656 -71.976562 46.484375 -65.34375 C 50.742188 -58.707031 52.875 -49.300781 52.875 -37.125 C 52.875 -24.945312 50.742188 -15.539062 46.484375 -8.90625 C 42.222656 -2.269531 36.132812 1.046875 28.21875 1.046875 Z M 28.359375 -16.921875 C 30.046875 -16.921875 31.332031 -18.675781 32.21875 -22.1875 C 33.113281 -25.707031 33.609375 -30.6875 33.703125 -37.125 C 33.609375 -43.5625 33.113281 -48.535156 32.21875 -52.046875 C 31.332031 -55.566406 30.046875 -57.328125 28.359375 -57.328125 C 26.578125 -57.328125 25.191406 -55.566406 24.203125 -52.046875 C 23.210938 -48.535156 22.71875 -43.5625 22.71875 -37.125 C 22.71875 -30.6875 23.210938 -25.707031 24.203125 -22.1875 C 25.191406 -18.675781 26.578125 -16.921875 28.359375 -16.921875 Z M 28.359375 -16.921875 "/></g></g></g><g fill="#ffffff" fill-opacity="1"><g transform="translate(123.75659, 152.978398)"><g/></g></g><g fill="#ffffff" fill-opacity="1"><g transform="translate(135.708326, 152.978398)"><g><path d="M 16.1875 -43.65625 C 12.03125 -43.65625 8.8125 -45.039062 6.53125 -47.8125 C 4.257812 -50.59375 3.125 -54.554688 3.125 -59.703125 C 3.125 -64.648438 4.257812 -68.484375 6.53125 -71.203125 C 8.8125 -73.929688 12.03125 -75.296875 16.1875 -75.296875 C 20.445312 -75.296875 23.710938 -73.929688 25.984375 -71.203125 C 28.265625 -68.484375 29.40625 -64.648438 29.40625 -59.703125 C 29.40625 -54.554688 28.265625 -50.59375 25.984375 -47.8125 C 23.710938 -45.039062 20.445312 -43.65625 16.1875 -43.65625 Z M 63.265625 -74.25 L 27.765625 0 L 8.3125 0 L 43.953125 -74.25 Z M 16.1875 -54.953125 C 17.769531 -54.953125 18.5625 -56.484375 18.5625 -59.546875 C 18.5625 -62.421875 17.769531 -63.859375 16.1875 -63.859375 C 14.601562 -63.859375 13.8125 -62.421875 13.8125 -59.546875 C 13.8125 -56.484375 14.601562 -54.953125 16.1875 -54.953125 Z M 54.65625 1.1875 C 50.488281 1.1875 47.265625 -0.171875 44.984375 -2.890625 C 42.710938 -5.617188 41.578125 -9.503906 41.578125 -14.546875 C 41.578125 -19.597656 42.710938 -23.507812 44.984375 -26.28125 C 47.265625 -29.050781 50.488281 -30.4375 54.65625 -30.4375 C 58.90625 -30.4375 62.164062 -29.050781 64.4375 -26.28125 C 66.71875 -23.507812 67.859375 -19.597656 67.859375 -14.546875 C 67.859375 -9.503906 66.71875 -5.617188 64.4375 -2.890625 C 62.164062 -0.171875 58.90625 1.1875 54.65625 1.1875 Z M 54.65625 -10.25 C 56.238281 -10.25 57.03125 -11.734375 57.03125 -14.703125 C 57.03125 -17.671875 56.238281 -19.15625 54.65625 -19.15625 C 53.070312 -19.15625 52.28125 -17.671875 52.28125 -14.703125 C 52.28125 -11.734375 53.070312 -10.25 54.65625 -10.25 Z M 54.65625 -10.25 "/></g></g></g></svg>