<?xml version="1.0" encoding="UTF-8" standalone="no"?>
<svg
   xmlns:dc="http://purl.org/dc/elements/1.1/"
   xmlns:cc="http://creativecommons.org/ns#"
   xmlns:rdf="http://www.w3.org/1999/02/22-rdf-syntax-ns#"
   xmlns:svg="http://www.w3.org/2000/svg"
   xmlns="http://www.w3.org/2000/svg"
   height="40.709969"
   width="105.19953"
   version="1.1"
   id="Elegant_Logo_Kit"
   x="0px"
   y="0px"
   viewBox="0 0 105.19953 40.709969"
   xml:space="preserve"><metadata
   id="metadata32"><rdf:RDF><cc:Work
       rdf:about=""><dc:format>image/svg+xml</dc:format><dc:type
         rdf:resource="http://purl.org/dc/dcmitype/StillImage" /><dc:title></dc:title></cc:Work></rdf:RDF></metadata><defs
   id="defs30" />
<style
   type="text/css"
   id="style2">
	.st0{fill:none;}
	.st1{fill:#020202;}
	.st2{-inkscape-font-specification:'League Gothic, Normal'; font-family:'League Gothic'}
	.st3{font-size:36px;}
	.st4{letter-spacing:1;}
	.st5{enable-background:new    ;}
	.st6{fill:#166734;}
	.st7{-inkscape-font-specification:'Adobe Caslon Pro, Semi-Bold Italic'; font-family:'Adobe Caslon Pro'}
	.st8{font-size:10px;}
</style>
<g
   transform="translate(-139.4327,-77.318332)"
   id="_x36__2_">
	<path
   id="rect4"
   style="fill:none"
   d="M 123.2,77.599998 H 266.7 V 109.6 H 123.2 Z"
   class="st0" />
	<g
   aria-label="&lt;R"
   transform="translate(142.1584,104.0673)"
   id="text6"
   style="font-size:36px;font-family:'League Gothic';-inkscape-font-specification:'League Gothic, Normal';letter-spacing:1;fill:#020202"
   class="st1 st2 st3 st4"><path
     d="m 1.296,-14.22 16.02,-8.352 v 3.492 l -12.276,6.264 12.276,6.264 v 3.492 l -16.02,-8.352 z"
     style="font-size:36px;font-family:'League Gothic';-inkscape-font-specification:'League Gothic, Normal';letter-spacing:1;fill:#020202"
     id="path35" /><path
     d="m 28.020812,0 -2.016,-11.16 h -1.044 V 0 h -3.887999 v -26.46 h 3.887999 c 4.644001,0 6.624,2.628 6.624,7.632 0,2.628 -0.684,5.004 -2.159999,6.012 L 31.908813,0 Z m -3.06,-14.76 c 0.540001,0 1.26,-0.072 1.836001,-0.576 0.576,-0.504 1.043999,-1.476 1.043999,-3.348 0,-1.872 -0.467999,-2.88 -1.043999,-3.384 -0.576001,-0.504 -1.296,-0.54 -1.836001,-0.54 z"
     style="font-size:36px;font-family:'League Gothic';-inkscape-font-specification:'League Gothic, Normal';letter-spacing:1;fill:#020202"
     id="path37" /></g>
	<g
   aria-label="e"
   transform="translate(180.9584,104.0673)"
   id="text8"
   style="font-size:36px;font-family:'League Gothic';-inkscape-font-specification:'League Gothic, Normal';letter-spacing:1"
   class="st2 st3 st4"><path
     d="m 10.548,-7.056 v 2.268 C 10.44,-2.88 9.864,-1.548 8.568,-0.504 7.92,0.036 7.02,0.288 5.832,0.288 3.492,0.288 2.304,-1.008 1.728,-2.304 1.404,-3.06 1.188,-3.924 1.152,-4.896 v -9.9 c 0.108,-1.908 0.72,-3.312 2.016,-4.392 0.612,-0.54 1.512,-0.792 2.7,-0.792 2.34,0 3.528,1.296 4.104,2.556 0.324,0.756 0.54,1.584 0.576,2.52 V -9.18 H 4.536 v 4.284 c 0.036,0.756 0.252,1.296 0.576,1.692 0.18,0.18 0.432,0.288 0.756,0.288 0.684,0 1.008,-0.432 1.152,-0.972 0.108,-0.288 0.144,-0.612 0.144,-1.008 v -2.16 z m -6.012,-4.968 h 2.628 v -2.772 c 0,-0.756 -0.144,-1.296 -0.504,-1.728 -0.18,-0.18 -0.468,-0.288 -0.792,-0.288 -0.684,0 -0.972,0.468 -1.152,1.008 -0.108,0.288 -0.144,0.612 -0.18,1.008 z"
     style="font-size:36px;font-family:'League Gothic';-inkscape-font-specification:'League Gothic, Normal';letter-spacing:1"
     id="path40" /></g>
	<g
   aria-label="SA&gt;"
   transform="translate(196.1584,104.0673)"
   id="text14"
   style="enable-background:new"
   class="st5"><path
     d="m 7.884,-19.368 c 0,-0.864 -0.036,-1.836 -0.288,-2.592 -0.252,-0.72 -0.648,-1.224 -1.26,-1.224 -1.008,0.036 -1.332,1.08 -1.332,2.628 0,0.9 0.396,1.836 0.972,2.844 0.576,1.008 1.332,2.052 2.088,3.168 0.9,1.332 1.8,2.7 2.484,4.032 0.684,1.332 1.152,2.7 1.152,4.14 0,1.764 -0.288,3.42 -1.116,4.644 C 9.756,-0.504 8.424,0.288 6.3,0.288 3.816,0.288 2.412,-0.648 1.62,-2.088 0.828,-3.528 0.648,-5.436 0.648,-7.416 l 3.816,-0.36 c 0,1.116 0.036,2.232 0.324,3.06 0.252,0.864 0.684,1.44 1.512,1.44 1.152,0 1.584,-1.224 1.584,-2.916 0,-0.864 -0.432,-1.872 -1.008,-2.916 -0.324,-0.504 -0.648,-1.044 -1.008,-1.584 -0.756,-1.08 -1.584,-2.304 -2.448,-3.636 -0.864,-1.332 -1.512,-2.7 -1.908,-4.104 -0.216,-0.684 -0.324,-1.404 -0.324,-2.124 0,-1.44 0.324,-2.988 1.152,-4.176 0.828,-1.152 2.088,-1.98 3.924,-2.016 2.34,-0.036 3.708,0.936 4.464,2.34 0.756,1.44 0.972,3.204 0.972,4.68 z"
     style="font-size:36px;font-family:'League Gothic';-inkscape-font-specification:'League Gothic, Normal';letter-spacing:1;fill:#166734"
     id="path43" /><path
     d="m 14.66,0 3.996,-26.46 h 4.752 L 27.404,0 h -3.78 l -0.72,-5.4 H 19.16 L 18.44,0 Z m 6.588,-17.856 -0.108,-0.684 h -0.216 l -0.108,0.684 -1.116,8.352 h 2.664 z"
     style="font-size:36px;font-family:'League Gothic';-inkscape-font-specification:'League Gothic, Normal';letter-spacing:1;fill:#020202"
     id="path45" /><path
     d="m 46.045688,-11.412 -16.02,8.352 v -3.492 l 12.276,-6.264 -12.276,-6.264 v -3.492 l 16.02,8.352 z"
     style="font-size:36px;font-family:'League Gothic';-inkscape-font-specification:'League Gothic, Normal';letter-spacing:1;fill:#020202"
     id="path47" /></g>
	<path
   id="rect16"
   style="fill:none"
   d="m 122.9,109.6 h 143.8 v 22.5 H 122.9 Z"
   class="st0" />
	<g
   aria-label="Research Software "
   transform="translate(139.4202,116.3583)"
   id="text22"
   style="enable-background:new"
   class="st5"><path
     d="m 2.81,-3.23 c 0.27,0 0.71,-0.06 0.95,0.49 0.12,0.24 1,2.2 1.14,2.44 0.14,0.23 0.18,0.33 0.28,0.33 C 5.34,0.03 5.52,0 6.1,0 c 0.54,0 0.7,0.03 0.8,0.03 0.06,0 0.08,-0.04 0.1,-0.1 l 0.02,-0.2 c 0.02,-0.06 0,-0.1 -0.06,-0.1 H 6.7 C 6.34,-0.37 6.1,-0.53 5.83,-0.95 5.66,-1.22 4.98,-2.64 4.92,-2.74 4.82,-2.94 4.66,-3.24 4.34,-3.32 V -3.36 C 5.64,-3.5 6.7,-4.3 6.7,-5.28 c 0,-1.38 -1.5,-1.45 -2.36,-1.45 -0.28,0 -1.32,0.03 -2.36,0.03 -0.1,0 -0.12,0.02 -0.14,0.08 L 1.8,-6.41 c -0.02,0.06 0,0.08 0.08,0.08 h 0.34 c 0.34,0 0.4,0.18 0.3,0.5 l -1.6,4.99 c -0.08,0.25 -0.26,0.47 -0.5,0.47 H 0.16 c -0.08,0 -0.1,0.02 -0.1,0.08 l -0.04,0.22 c -0.02,0.06 0,0.1 0.06,0.1 0.12,0 0.5,-0.03 1.2,-0.03 0.86,0 1.3,0.03 1.42,0.03 0.06,0 0.1,-0.02 0.12,-0.08 l 0.02,-0.24 c 0.02,-0.04 0,-0.08 -0.06,-0.08 H 2.36 c -0.28,0 -0.39,-0.18 -0.22,-0.72 z M 3.8,-6.37 c 0.12,-0.02 0.24,-0.02 0.42,-0.02 0.98,0 1.28,0.65 1.28,1.07 0,0.72 -0.46,1.28 -0.98,1.5 -0.68,0.28 -1.2,0.24 -1.6,0.24 z"
     style="font-size:10px;font-family:'Adobe Caslon Pro';-inkscape-font-specification:'Adobe Caslon Pro, Semi-Bold Italic';fill:#020202"
     id="path51" /><path
     d="m 10.089844,-1.1 c -0.02,-0.02 -0.06,0 -0.08,0.02 -0.2200003,0.3 -0.6200002,0.6 -1.0800002,0.6 -0.28,0 -0.54,-0.24 -0.54,-0.64 0,-0.36 0.06,-0.64 0.1,-0.74 0.3799999,-0.02 0.92,-0.14 1.46,-0.42 0.5800002,-0.32 0.9200002,-0.78 0.9200002,-1.29 0,-0.29 -0.24,-0.59 -0.7,-0.59 -0.5400003,0 -1.1000002,0.26 -1.5000002,0.62 -0.8200001,0.74 -1.2400001,1.8 -1.2400001,2.58 0,0.7 0.4,1.06 1.0600001,1.06 0.88,0 1.5600002,-0.64 1.7800002,-1 0.02,-0.04 0.02,-0.06 -0.03,-0.09 z M 9.6898438,-3.68 c 0.22,0 0.3,0.18 0.3,0.36 0,0.28 -0.2000001,0.58 -0.42,0.76 -0.34,0.26 -0.82,0.38 -1,0.38 0.12,-0.54 0.62,-1.5 1.12,-1.5 z"
     style="font-size:10px;font-family:'Adobe Caslon Pro';-inkscape-font-specification:'Adobe Caslon Pro, Semi-Bold Italic';fill:#020202"
     id="path53" /><path
     d="m 13.30125,-1.24 c 0,-0.46 -0.18,-0.81 -0.38,-1.08 -0.11,-0.15 -0.46,-0.56 -0.46,-0.9 0,-0.44 0.22,-0.58 0.42,-0.58 0.16,0 0.2,0.16 0.24,0.28 0.06,0.26 0.22,0.34 0.4,0.34 0.22,0 0.38,-0.16 0.38,-0.42 0,-0.42 -0.44,-0.56 -0.78,-0.56 -0.94,0 -1.48,0.64 -1.48,1.28 -0.02,0.42 0.17,0.67 0.37,1.01 0.21,0.36 0.47,0.65 0.45,0.99 0,0.42 -0.22,0.64 -0.5,0.64 -0.18,0 -0.26,-0.1 -0.32,-0.26 -0.08,-0.24 -0.24,-0.4 -0.48,-0.4 -0.22,0 -0.38,0.18 -0.38,0.42 0,0.34 0.34,0.58 1,0.58 0.9,0 1.52,-0.56 1.52,-1.34 z"
     style="font-size:10px;font-family:'Adobe Caslon Pro';-inkscape-font-specification:'Adobe Caslon Pro, Semi-Bold Italic';fill:#020202"
     id="path55" /><path
     d="m 16.90625,-1.1 c -0.02,-0.02 -0.06,0 -0.08,0.02 -0.22,0.3 -0.62,0.6 -1.08,0.6 -0.28,0 -0.54,-0.24 -0.54,-0.64 0,-0.36 0.06,-0.64 0.1,-0.74 0.38,-0.02 0.92,-0.14 1.46,-0.42 0.58,-0.32 0.92,-0.78 0.92,-1.29 0,-0.29 -0.24,-0.59 -0.7,-0.59 -0.54,0 -1.1,0.26 -1.5,0.62 -0.82,0.74 -1.24,1.8 -1.24,2.58 0,0.7 0.4,1.06 1.06,1.06 0.88,0 1.56,-0.64 1.78,-1 0.02,-0.04 0.02,-0.06 -0.03,-0.09 z m -0.4,-2.58 c 0.22,0 0.3,0.18 0.3,0.36 0,0.28 -0.2,0.58 -0.42,0.76 -0.34,0.26 -0.82,0.38 -1,0.38 0.12,-0.54 0.62,-1.5 1.12,-1.5 z"
     style="font-size:10px;font-family:'Adobe Caslon Pro';-inkscape-font-specification:'Adobe Caslon Pro, Semi-Bold Italic';fill:#020202"
     id="path57" /><path
     d="m 21.637656,-4.18 c -0.06,0 -0.12,0.02 -0.16,0.08 l -0.16,0.28 c -0.12,-0.16 -0.32,-0.34 -0.76,-0.34 -1.34,0 -2.74,2.2 -2.74,3.54 0,0.42 0.36,0.72 0.62,0.72 0.82,0 1.64,-1.06 2.06,-1.68 l 0.06,0.02 c -0.36,1.04 -0.42,1.26 -0.42,1.4 0,0.16 0.1,0.26 0.32,0.26 0.78,0 1.48,-0.84 1.58,-1.04 0.02,-0.06 0.02,-0.1 0,-0.12 l -0.12,-0.09 c -0.04,-0.03 -0.06,-0.01 -0.1,0.03 -0.08,0.1 -0.48,0.58 -0.62,0.58 -0.08,0 -0.12,-0.02 -0.12,-0.12 0,-0.12 0.38,-1.28 0.42,-1.46 0.08,-0.26 0.56,-1.54 0.74,-1.96 0.02,-0.06 0,-0.1 -0.06,-0.1 z m -2.6,3.6 c -0.16,0 -0.24,-0.1 -0.24,-0.32 0,-0.56 0.28,-1.46 0.84,-2.25 0.26,-0.37 0.56,-0.61 0.82,-0.61 0.28,0 0.46,0.28 0.46,0.44 0,0.32 -0.1,0.62 -0.24,0.9 -0.18,0.38 -1.26,1.84 -1.64,1.84 z"
     style="font-size:10px;font-family:'Adobe Caslon Pro';-inkscape-font-specification:'Adobe Caslon Pro, Semi-Bold Italic';fill:#020202"
     id="path59" /><path
     d="m 23.505625,0 c 0.06,0 0.1,-0.02 0.12,-0.06 l 0.34,-1.02 c 0.11,-0.34 0.22,-0.6 0.32,-0.82 0.3,-0.58 0.86,-1.4 1.14,-1.4 0.14,0 0.2,0.06 0.28,0.12 0.08,0.06 0.18,0.08 0.3,0.08 0.18,0 0.42,-0.26 0.42,-0.56 0,-0.3 -0.24,-0.5 -0.52,-0.5 -0.66,0 -1.37,1.22 -1.63,1.78 l -0.07,-0.04 c 0.22,-0.66 0.4,-1.18 0.4,-1.36 0,-0.18 -0.1,-0.38 -0.4,-0.38 -0.82,0 -1.4,0.72 -1.58,1.02 -0.02,0.04 -0.02,0.08 0,0.1 l 0.12,0.08 c 0.04,0.02 0.08,0.02 0.1,-0.02 0.14,-0.2 0.54,-0.58 0.72,-0.58 0.1,0 0.18,0.08 0.18,0.16 0,0.18 -0.33,1.2 -0.48,1.7 l -0.5,1.62 c -0.02,0.04 0.02,0.08 0.08,0.08 z"
     style="font-size:10px;font-family:'Adobe Caslon Pro';-inkscape-font-specification:'Adobe Caslon Pro, Semi-Bold Italic';fill:#020202"
     id="path61" /><path
     d="m 28.704687,-0.96 c -0.02,-0.02 -0.06,0 -0.08,0.04 -0.12,0.14 -0.51,0.44 -0.829999,0.44 -0.260001,0 -0.410001,-0.22 -0.410001,-0.72 0,-0.54 0.14,-1.16 0.39,-1.76 0.19,-0.44 0.380001,-0.68 0.6,-0.68 0.16,0 0.25,0.16 0.31,0.3 0.06,0.18 0.180001,0.24 0.34,0.24 0.200001,0 0.42,-0.22 0.42,-0.5 0,-0.18 -0.17,-0.56 -0.69,-0.56 -1.24,0 -2.33,1.87 -2.33,3.27 0,0.68 0.5,0.99 0.9,0.99 0.740001,0 1.39,-0.64 1.540001,-0.86 0.04,-0.06 0.02,-0.08 -0.02,-0.1 z"
     style="font-size:10px;font-family:'Adobe Caslon Pro';-inkscape-font-specification:'Adobe Caslon Pro, Semi-Bold Italic';fill:#020202"
     id="path63" /><path
     d="m 31.120625,-2.76 1.52,-3.58 c 0.06,-0.15 0.1,-0.25 0.1,-0.31 0,-0.06 -0.04,-0.1 -0.12,-0.1 h -1.58 c -0.1,0 -0.12,0.02 -0.14,0.08 l -0.04,0.18 c -0.02,0.06 0.02,0.1 0.06,0.1 h 0.3 c 0.18,0 0.31,0.08 0.31,0.2 0,0.09 -0.05,0.26 -0.13,0.47 l -2.14,5.58 c -0.03,0.08 -0.01,0.14 0.08,0.14 h 0.64 c 0.07,0 0.1,-0.02 0.12,-0.08 l 0.52,-1.22 c 0.12,-0.34 0.32,-0.7 0.56,-1.02 0.28,-0.36 1.02,-1.2 1.46,-1.2 0.24,0 0.3,0.24 0.3,0.47 0,0.47 -0.18,1.21 -0.38,1.79 -0.16,0.52 -0.38,1.15 -0.6,1.15 -0.14,0 -0.18,-0.13 -0.2,-0.27 -0.02,-0.16 -0.12,-0.34 -0.36,-0.34 -0.26,0 -0.42,0.26 -0.42,0.5 0,0.32 0.26,0.54 0.58,0.54 0.66,0 1.22,-0.54 1.66,-1.34 0.36,-0.64 0.66,-1.48 0.66,-2.21 0,-0.45 -0.18,-0.93 -0.8,-0.93 -0.76,0 -1.42,0.74 -1.9,1.46 z"
     style="font-size:10px;font-family:'Adobe Caslon Pro';-inkscape-font-specification:'Adobe Caslon Pro, Semi-Bold Italic';fill:#020202"
     id="path65" /><path
     d="m 41.459998,-6.65 c 0,-0.04 -0.02,-0.06 -0.08,-0.06 l -0.12,-0.02 c -0.08,0 -0.1,0 -0.1,0.04 -0.04,0.2 -0.1,0.34 -0.16,0.34 -0.06,0 -0.1,-0.02 -0.14,-0.04 -0.16,-0.12 -0.64,-0.46 -1.18,-0.46 -1.3,0 -1.86,1.04 -1.86,1.76 0,1.03 0.52,1.55 1.14,2.23 0.44,0.48 0.94,0.86 0.94,1.5 0,0.55 -0.44,1.05 -1.08,1.05 -0.62,0 -1.4,-0.68 -1.12,-2.12 0,-0.06 -0.02,-0.08 -0.06,-0.1 l -0.16,-0.04 c -0.06,0 -0.08,0 -0.1,0.04 l -0.74,2.18 c -0.02,0.08 -0.02,0.08 0.04,0.1 l 0.12,0.06 c 0.06,0.02 0.08,0 0.1,-0.04 0.08,-0.14 0.18,-0.3 0.24,-0.38 0.06,-0.06 0.16,-0.08 0.26,0.02 0.32,0.36 0.78,0.74 1.42,0.74 1.04,0 1.96,-0.68 1.96,-1.96 0,-1.11 -0.66,-1.67 -1.12,-2.13 -0.46,-0.46 -0.9,-0.78 -0.9,-1.48 0,-0.43 0.32,-0.97 0.9,-0.97 1.02,0 1.14,1.2 1.08,1.6 0,0.06 0.02,0.1 0.1,0.1 h 0.18 c 0.04,0 0.06,-0.02 0.08,-0.06 z"
     style="font-size:10px;font-family:'Adobe Caslon Pro';-inkscape-font-specification:'Adobe Caslon Pro, Semi-Bold Italic';fill:#166734"
     id="path67" /><path
     d="m 42.778123,0.1 c 0.6,0 1.06,-0.22 1.44,-0.66 0.6,-0.66 0.86,-1.7 0.86,-2.34 0,-0.9 -0.66,-1.26 -1.24,-1.26 -0.54,0 -1.02,0.2 -1.42,0.64 -0.56,0.61 -0.84,1.41 -0.84,2.25 0,0.92 0.61,1.37 1.2,1.37 z m -0.14,-0.54 c -0.22,0 -0.42,-0.2 -0.42,-0.47 0,-0.4 0.2,-1 0.53,-1.56 0.49,-0.82 0.87,-1.17 1.28,-1.17 0.29,0 0.43,0.23 0.43,0.45 0,0.36 -0.31,1.19 -0.68,1.82 -0.39,0.65 -0.75,0.93 -1.14,0.93 z"
     style="font-size:10px;font-family:'Adobe Caslon Pro';-inkscape-font-specification:'Adobe Caslon Pro, Semi-Bold Italic';fill:#166734"
     id="path69" /><path
     d="m 47.749686,-3.94 c 0.3,-1.07 0.62,-2.52 1.4,-2.52 0.26,0 0.34,0.19 0.36,0.29 0.04,0.26 0.16,0.46 0.54,0.46 0.24,0 0.46,-0.2 0.46,-0.48 0,-0.3 -0.32,-0.66 -1.06,-0.66 -0.64,0 -1.26,0.4 -1.52,0.7 -0.68,0.74 -0.84,1.42 -1.14,2.21 h -0.84 c -0.08,0 -0.1,0.04 -0.12,0.1 l -0.05,0.24 c -0.01,0.06 0.01,0.1 0.07,0.1 h 0.86 l -0.9,3.38 c -0.48,1.83 -0.96,2.67 -1.42,2.67 -0.12,0 -0.18,-0.06 -0.2,-0.16 -0.02,-0.26 -0.18,-0.52 -0.5,-0.52 -0.28,0 -0.46,0.22 -0.46,0.48 0,0.36 0.32,0.62 0.84,0.62 1.17,0 1.97,-1.3 2.52,-2.81 0.42,-1.16 0.86,-2.88 1.08,-3.66 h 1 c 0.08,0 0.1,-0.02 0.11,-0.08 l 0.05,-0.26 c 0.02,-0.06 0,-0.1 -0.06,-0.1 z"
     style="font-size:10px;font-family:'Adobe Caslon Pro';-inkscape-font-specification:'Adobe Caslon Pro, Semi-Bold Italic';fill:#166734"
     id="path71" /><path
     d="m 50.678436,-3.5 h 1.04 c 0.06,0 0.09,-0.01 0.1,-0.05 l 0.08,-0.29 c 0.02,-0.06 0,-0.1 -0.04,-0.1 h -1.03 l 0.65,-1.32 c 0.04,-0.1 0,-0.2 -0.06,-0.2 -0.04,0 -0.1,0.04 -0.16,0.06 -0.08,0.06 -0.48,0.24 -0.68,0.26 -0.18,0.02 -0.22,0.04 -0.26,0.14 l -0.41,1.06 h -0.77 c -0.06,0 -0.08,0.02 -0.1,0.08 l -0.08,0.26 c -0.02,0.08 0,0.1 0.06,0.1 h 0.74 l -1.06,2.74 c -0.06,0.18 -0.1,0.38 -0.1,0.56 0,0.14 0.12,0.3 0.42,0.3 0.9,0 1.8,-0.84 1.92,-1 0.02,-0.04 0.02,-0.06 -0.02,-0.08 l -0.11,-0.12 c -0.04,-0.04 -0.06,-0.04 -0.1,0 -0.06,0.06 -0.68,0.56 -0.91,0.56 -0.12,0 -0.18,-0.08 -0.18,-0.18 0,-0.12 0.1,-0.36 0.18,-0.58 z"
     style="font-size:10px;font-family:'Adobe Caslon Pro';-inkscape-font-specification:'Adobe Caslon Pro, Semi-Bold Italic';fill:#166734"
     id="path73" /><path
     d="m 53.569686,-3.34 c 0.4,0 0.78,-0.26 0.9,-0.32 l 0.05,0.06 c -0.45,0.52 -1.35,1.84 -1.35,2.7 0,0.62 0.42,1 0.96,1 0.76,0 1.4,-0.66 1.64,-0.98 0.06,0.4 0.34,0.98 0.98,0.98 0.77,0 1.18,-0.47 1.5,-0.92 0.48,-0.66 0.76,-1.58 0.76,-2.32 0,-0.76 -0.29,-1.02 -0.67,-1.02 -0.26,0 -0.46,0.2 -0.46,0.44 0,0.2 0.18,0.42 0.26,0.5 0.1,0.1 0.21,0.46 0.21,0.8 0,0.99 -0.62,1.72 -1.28,1.72 -0.46,0 -0.72,-0.36 -0.72,-0.74 0,-0.26 0.12,-0.68 0.23,-1.04 0.18,-0.56 0.42,-1.06 0.42,-1.28 0,-0.16 -0.12,-0.28 -0.32,-0.28 -0.2,0 -0.46,0.1 -0.52,0.34 -0.1,0.4 -0.11,0.88 -0.17,1.22 -0.08,0.48 -0.24,1.03 -0.38,1.23 -0.28,0.39 -0.64,0.57 -0.98,0.57 -0.34,-0.02 -0.57,-0.3 -0.57,-0.72 0,-0.88 0.77,-2.18 1.05,-2.52 0.12,-0.12 0.04,-0.22 -0.08,-0.2 l -0.96,0.06 h -0.8 c -0.42,0 -0.68,0.14 -0.86,0.34 -0.24,0.26 -0.44,0.54 -0.44,0.96 0,0.48 0.28,0.74 0.52,0.74 0.28,0 0.42,-0.18 0.42,-0.38 0,-0.26 -0.16,-0.34 -0.22,-0.38 -0.1,-0.04 -0.3,-0.12 -0.28,-0.3 0,-0.16 0.18,-0.26 0.36,-0.26 z"
     style="font-size:10px;font-family:'Adobe Caslon Pro';-inkscape-font-specification:'Adobe Caslon Pro, Semi-Bold Italic';fill:#166734"
     id="path75" /><path
     d="m 63.147811,-4.18 c -0.06,0 -0.12,0.02 -0.16,0.08 l -0.16,0.28 c -0.12,-0.16 -0.32,-0.34 -0.76,-0.34 -1.34,0 -2.74,2.2 -2.74,3.54 0,0.42 0.36,0.72 0.62,0.72 0.82,0 1.64,-1.06 2.06,-1.68 l 0.06,0.02 c -0.36,1.04 -0.42,1.26 -0.42,1.4 0,0.16 0.1,0.26 0.32,0.26 0.78,0 1.48,-0.84 1.58,-1.04 0.02,-0.06 0.02,-0.1 0,-0.12 l -0.12,-0.09 c -0.04,-0.03 -0.06,-0.01 -0.1,0.03 -0.08,0.1 -0.48,0.58 -0.62,0.58 -0.08,0 -0.12,-0.02 -0.12,-0.12 0,-0.12 0.38,-1.28 0.42,-1.46 0.08,-0.26 0.56,-1.54 0.74,-1.96 0.02,-0.06 0,-0.1 -0.06,-0.1 z m -2.6,3.6 c -0.16,0 -0.24,-0.1 -0.24,-0.32 0,-0.56 0.28,-1.46 0.84,-2.25 0.26,-0.37 0.56,-0.61 0.82,-0.61 0.28,0 0.46,0.28 0.46,0.44 0,0.32 -0.1,0.62 -0.24,0.9 -0.18,0.38 -1.26,1.84 -1.64,1.84 z"
     style="font-size:10px;font-family:'Adobe Caslon Pro';-inkscape-font-specification:'Adobe Caslon Pro, Semi-Bold Italic';fill:#166734"
     id="path77" /><path
     d="m 65.01578,0 c 0.06,0 0.1,-0.02 0.12,-0.06 l 0.34,-1.02 c 0.11,-0.34 0.22,-0.6 0.32,-0.82 0.3,-0.58 0.86,-1.4 1.14,-1.4 0.14,0 0.2,0.06 0.28,0.12 0.08,0.06 0.18,0.08 0.3,0.08 0.18,0 0.42,-0.26 0.42,-0.56 0,-0.3 -0.24,-0.5 -0.52,-0.5 -0.66,0 -1.37,1.22 -1.63,1.78 l -0.07,-0.04 c 0.22,-0.66 0.4,-1.18 0.4,-1.36 0,-0.18 -0.1,-0.38 -0.4,-0.38 -0.82,0 -1.4,0.72 -1.58,1.02 -0.02,0.04 -0.02,0.08 0,0.1 l 0.12,0.08 c 0.04,0.02 0.08,0.02 0.1,-0.02 0.14,-0.2 0.54,-0.58 0.72,-0.58 0.1,0 0.18,0.08 0.18,0.16 0,0.18 -0.33,1.2 -0.48,1.7 l -0.5,1.62 c -0.02,0.04 0.02,0.08 0.08,0.08 z"
     style="font-size:10px;font-family:'Adobe Caslon Pro';-inkscape-font-specification:'Adobe Caslon Pro, Semi-Bold Italic';fill:#166734"
     id="path79" /><path
     d="m 70.564842,-1.1 c -0.02,-0.02 -0.06,0 -0.08,0.02 -0.22,0.3 -0.62,0.6 -1.08,0.6 -0.28,0 -0.54,-0.24 -0.54,-0.64 0,-0.36 0.06,-0.64 0.1,-0.74 0.38,-0.02 0.92,-0.14 1.46,-0.42 0.58,-0.32 0.92,-0.78 0.92,-1.29 0,-0.29 -0.24,-0.59 -0.7,-0.59 -0.54,0 -1.1,0.26 -1.5,0.62 -0.82,0.74 -1.24,1.8 -1.24,2.58 0,0.7 0.4,1.06 1.06,1.06 0.88,0 1.56,-0.64 1.78,-1 0.02,-0.04 0.02,-0.06 -0.03,-0.09 z m -0.4,-2.58 c 0.22,0 0.3,0.18 0.3,0.36 0,0.28 -0.2,0.58 -0.42,0.76 -0.34,0.26 -0.82,0.38 -1,0.38 0.12,-0.54 0.62,-1.5 1.12,-1.5 z"
     style="font-size:10px;font-family:'Adobe Caslon Pro';-inkscape-font-specification:'Adobe Caslon Pro, Semi-Bold Italic';fill:#166734"
     id="path81" /></g>
	<g
   aria-label="Alliance"
   transform="translate(213.0202,116.3583)"
   id="text24"
   style="font-size:10px;font-family:'Adobe Caslon Pro';-inkscape-font-specification:'Adobe Caslon Pro, Semi-Bold Italic'"
   class="st7 st8"><path
     d="m 4.66,-3 -0.52,1.84 c -0.2,0.73 -0.42,0.79 -0.78,0.79 H 3.19 c -0.05,0 -0.08,0.02 -0.09,0.08 l -0.04,0.21 c -0.01,0.07 0,0.11 0.06,0.11 C 3.32,0.03 3.62,0 4.4,0 5.18,0 5.58,0.03 5.69,0.03 5.78,0.03 5.81,0 5.82,-0.05 L 5.86,-0.29 C 5.87,-0.34 5.85,-0.37 5.79,-0.37 H 5.54 c -0.2,0 -0.36,-0.12 -0.36,-0.28 0,-0.13 0.06,-0.39 0.1,-0.55 L 6.76,-6.73 C 6.78,-6.8 6.74,-6.85 6.66,-6.85 6.58,-6.85 6.44,-6.8 6.26,-6.77 6,-6.72 5.76,-6.7 5.62,-6.7 c -0.16,0 -0.2,0.02 -0.26,0.1 l -4.67,5.53 c -0.35,0.42 -0.83,0.7 -1.19,0.7 h -0.14 c -0.04,0 -0.07,0.02 -0.08,0.08 l -0.04,0.22 C -0.77,0 -0.74,0.03 -0.68,0.03 -0.56,0.03 -0.22,0 0.5,0 1.34,0 1.76,0.03 1.86,0.03 1.92,0.03 1.95,0 1.96,-0.06 L 2,-0.29 C 2.01,-0.34 1.99,-0.37 1.94,-0.37 h -0.3 c -0.26,0 -0.38,-0.1 -0.38,-0.26 0,-0.17 0.24,-0.51 0.52,-0.89 L 2.94,-3 Z M 4.78,-3.36 H 3.22 L 5.32,-6 c 0.08,-0.08 0.24,-0.06 0.2,0.08 z"
     style="font-size:10px;font-family:'Adobe Caslon Pro';-inkscape-font-specification:'Adobe Caslon Pro, Semi-Bold Italic'"
     id="path84" /><path
     d="m 7.1215625,-1.26 c -0.1,0.28 -0.32,0.84 -0.32,1 0,0.2 0.16,0.36 0.34,0.36 0.88,0 1.74,-0.86 1.78,-0.92 0.04,-0.06 0.02,-0.08 0,-0.12 l -0.12,-0.1 c -0.04,-0.04 -0.06,-0.04 -0.1,-0.02 -0.12,0.14 -0.52,0.52 -0.72,0.52 -0.2,0 -0.1,-0.34 0,-0.6 L 10.001563,-6.6 c 0.03,-0.09 0.01,-0.15 -0.080001,-0.15 h -1.54 c -0.05,0 -0.07,0.02 -0.08,0.05 l -0.06,0.23 c -0.01,0.05 0,0.08 0.04,0.08 h 0.32 c 0.3,0 0.31,0.26 0.18,0.61 z"
     style="font-size:10px;font-family:'Adobe Caslon Pro';-inkscape-font-specification:'Adobe Caslon Pro, Semi-Bold Italic'"
     id="path86" /><path
     d="m 9.6996875,-1.26 c -0.1,0.28 -0.32,0.84 -0.32,1 0,0.2 0.16,0.36 0.34,0.36 0.8800005,0 1.7400005,-0.86 1.7800005,-0.92 0.04,-0.06 0.02,-0.08 0,-0.12 l -0.120001,-0.1 c -0.04,-0.04 -0.06,-0.04 -0.1,-0.02 -0.12,0.14 -0.52,0.52 -0.72,0.52 -0.2,0 -0.100001,-0.34 0,-0.6 l 2.02,-5.46 c 0.03,-0.09 0.01,-0.15 -0.08,-0.15 h -1.540001 c -0.05,0 -0.07,0.02 -0.08,0.05 l -0.06,0.23 c -0.01,0.05 0,0.08 0.04,0.08 h 0.32 c 0.3,0 0.31,0.26 0.18,0.61 z"
     style="font-size:10px;font-family:'Adobe Caslon Pro';-inkscape-font-specification:'Adobe Caslon Pro, Semi-Bold Italic'"
     id="path88" /><path
     d="m 14.267813,-5.37 c 0.36,0 0.59,-0.35 0.59,-0.58 0,-0.25 -0.21,-0.5 -0.61,-0.5 -0.31,0 -0.56,0.27 -0.56,0.54 0,0.25 0.179999,0.54 0.58,0.54 z m -0.19,2.57 c 0.17,-0.47 0.3,-0.84 0.3,-1.04 0,-0.2 -0.12,-0.32 -0.36,-0.32 -0.88,0 -1.78,1.16 -1.84,1.22 -0.02,0.04 0,0.06 0.04,0.09 l 0.1,0.09 c 0.04,0.04 0.08,0.04 0.12,0 0.14,-0.16 0.599999,-0.68 0.76,-0.68 0.08,0 0.12,0.04 0.12,0.12 0,0.12 -0.06,0.31 -0.16,0.58 l -0.28,0.78 c -0.4,1.11 -0.56,1.58 -0.56,1.78 0,0.16 0.08,0.28 0.29,0.28 1.09,0 1.79,-0.96 1.849999,-1.04 0.04,-0.04 0.02,-0.06 -0.02,-0.1 l -0.11,-0.11 c -0.03,-0.03 -0.07,-0.03 -0.09,0.01 -0.06,0.08 -0.58,0.62 -0.780001,0.64 -0.08,0 -0.119999,-0.06 -0.119999,-0.14 0,-0.1 0.04,-0.26 0.18,-0.64 z"
     style="font-size:10px;font-family:'Adobe Caslon Pro';-inkscape-font-specification:'Adobe Caslon Pro, Semi-Bold Italic'"
     id="path90" /><path
     d="m 18.7275,-4.18 c -0.06,0 -0.12,0.02 -0.16,0.08 l -0.16,0.28 c -0.12,-0.16 -0.32,-0.34 -0.76,-0.34 -1.34,0 -2.74,2.2 -2.74,3.54 0,0.42 0.36,0.72 0.62,0.72 0.82,0 1.64,-1.06 2.06,-1.68 l 0.06,0.02 c -0.36,1.04 -0.42,1.26 -0.42,1.4 0,0.16 0.1,0.26 0.32,0.26 0.78,0 1.48,-0.84 1.58,-1.04 0.02,-0.06 0.02,-0.1 0,-0.12 l -0.12,-0.09 c -0.04,-0.03 -0.06,-0.01 -0.1,0.03 -0.08,0.1 -0.48,0.58 -0.62,0.58 -0.08,0 -0.12,-0.02 -0.12,-0.12 0,-0.12 0.38,-1.28 0.42,-1.46 0.08,-0.26 0.56,-1.54 0.74,-1.96 0.02,-0.06 0,-0.1 -0.06,-0.1 z m -2.6,3.6 c -0.16,0 -0.24,-0.1 -0.24,-0.32 0,-0.56 0.28,-1.46 0.84,-2.25 0.26,-0.37 0.56,-0.61 0.82,-0.61 0.28,0 0.46,0.28 0.46,0.44 0,0.32 -0.1,0.62 -0.24,0.9 -0.18,0.38 -1.26,1.84 -1.64,1.84 z"
     style="font-size:10px;font-family:'Adobe Caslon Pro';-inkscape-font-specification:'Adobe Caslon Pro, Semi-Bold Italic'"
     id="path92" /><path
     d="m 20.975469,-0.98 c 0.16,-0.4 0.34,-0.7 0.54,-1.02 0.42,-0.68 1.26,-1.48 1.56,-1.48 0.14,0 0.23,0.08 0.23,0.24 0,0.12 -0.28,0.88 -0.43,1.3 -0.32,0.88 -0.6,1.56 -0.6,1.74 0,0.18 0.12,0.3 0.34,0.3 0.84,0 1.54,-0.7 1.66,-0.86 0.04,-0.06 0.04,-0.1 0,-0.12 l -0.1,-0.08 c -0.04,-0.04 -0.08,-0.04 -0.12,-0.02 -0.1,0.14 -0.48,0.48 -0.62,0.48 -0.08,0 -0.12,-0.06 -0.12,-0.16 0,-0.14 0.14,-0.52 0.4,-1.18 0.41,-1.03 0.54,-1.5 0.54,-1.76 0,-0.28 -0.2,-0.56 -0.57,-0.56 -0.95,0 -1.87,1.26 -2.17,1.72 l -0.06,-0.04 c 0.18,-0.44 0.47,-1.12 0.47,-1.34 0,-0.14 -0.09,-0.34 -0.38,-0.34 -0.91,0 -1.57,0.76 -1.71,0.94 -0.04,0.04 -0.02,0.08 0.02,0.1 l 0.11,0.11 c 0.03,0.03 0.07,0.03 0.09,-0.01 0.16,-0.16 0.55,-0.52 0.73,-0.52 0.09,0 0.15,0.06 0.15,0.16 0,0.14 -0.24,0.76 -0.46,1.4 l -0.68,1.85 c -0.02,0.06 -0.01,0.13 0.08,0.13 h 0.64 c 0.1,0 0.12,-0.02 0.14,-0.06 z"
     style="font-size:10px;font-family:'Adobe Caslon Pro';-inkscape-font-specification:'Adobe Caslon Pro, Semi-Bold Italic'"
     id="path94" /><path
     d="m 27.298437,-0.96 c -0.02,-0.02 -0.06,0 -0.08,0.04 -0.12,0.14 -0.51,0.44 -0.829999,0.44 -0.260001,0 -0.410001,-0.22 -0.410001,-0.72 0,-0.54 0.14,-1.16 0.39,-1.76 0.19,-0.44 0.380001,-0.68 0.6,-0.68 0.16,0 0.25,0.16 0.31,0.3 0.06,0.18 0.180001,0.24 0.34,0.24 0.200001,0 0.42,-0.22 0.42,-0.5 0,-0.18 -0.17,-0.56 -0.69,-0.56 -1.24,0 -2.33,1.87 -2.33,3.27 0,0.68 0.5,0.99 0.9,0.99 0.740001,0 1.39,-0.64 1.540001,-0.86 0.04,-0.06 0.02,-0.08 -0.02,-0.1 z"
     style="font-size:10px;font-family:'Adobe Caslon Pro';-inkscape-font-specification:'Adobe Caslon Pro, Semi-Bold Italic'"
     id="path96" /><path
     d="m 30.832031,-1.1 c -0.02,-0.02 -0.06,0 -0.08,0.02 -0.22,0.3 -0.62,0.6 -1.08,0.6 -0.28,0 -0.54,-0.24 -0.54,-0.64 0,-0.36 0.06,-0.64 0.1,-0.74 0.38,-0.02 0.92,-0.14 1.46,-0.42 0.58,-0.32 0.92,-0.78 0.92,-1.29 0,-0.29 -0.24,-0.59 -0.7,-0.59 -0.54,0 -1.1,0.26 -1.5,0.62 -0.82,0.74 -1.24,1.8 -1.24,2.58 0,0.7 0.4,1.06 1.06,1.06 0.88,0 1.56,-0.64 1.78,-1 0.02,-0.04 0.02,-0.06 -0.03,-0.09 z m -0.4,-2.58 c 0.22,0 0.3,0.18 0.3,0.36 0,0.28 -0.2,0.58 -0.42,0.76 -0.34,0.26 -0.82,0.38 -1,0.38 0.12,-0.54 0.62,-1.5 1.12,-1.5 z"
     style="font-size:10px;font-family:'Adobe Caslon Pro';-inkscape-font-specification:'Adobe Caslon Pro, Semi-Bold Italic'"
     id="path98" /></g>
</g>
</svg>
